<svg width="26" height="26" viewBox="0 0 26 26" fill="none" xmlns="http://www.w3.org/2000/svg">
<path d="M11.1704 11.1697C11.1704 12.293 10.2598 13.2036 9.13656 13.2036H3.03487C1.9116 13.2036 1.00098 12.293 1.00098 11.1697V3.03414C1.00098 1.91087 1.9116 1.00024 3.03487 1.00024H9.13656C10.2598 1.00024 11.1704 1.91087 11.1704 3.03414V11.1697Z" stroke="white" stroke-miterlimit="10"/>
<path d="M25.0005 22.9661C25.0005 24.0894 24.0899 25 22.9666 25H16.8649C15.7417 25 14.8311 24.0894 14.8311 22.9661V14.8305C14.8311 13.7073 15.7417 12.7966 16.8649 12.7966H22.9666C24.0899 12.7966 25.0005 13.7073 25.0005 14.8305V22.9661Z" stroke="white" stroke-miterlimit="10"/>
<path d="M11.1704 22.9661C11.1704 24.0894 10.2598 25 9.13656 25H3.03487C1.9116 25 1.00098 24.0894 1.00098 22.9661V18.8983C1.00098 17.775 1.9116 16.8644 3.03487 16.8644H9.13656C10.2598 16.8644 11.1704 17.775 11.1704 18.8983V22.9661Z" stroke="white" stroke-miterlimit="10"/>
<path d="M25.0005 7.10185C25.0005 8.22512 24.0899 9.13574 22.9666 9.13574H16.8649C15.7417 9.13574 14.8311 8.22512 14.8311 7.10185V3.03406C14.8311 1.91079 15.7417 1.00016 16.8649 1.00016H22.9666C24.0899 1.00016 25.0005 1.91079 25.0005 3.03406V7.10185Z" stroke="white" stroke-miterlimit="10"/>
</svg>
