<svg width="14" height="16" viewBox="0 0 14 16" fill="none" xmlns="http://www.w3.org/2000/svg">
<path d="M9.25927 13.5385L9.23989 13.5382C9.07674 13.5331 8.92228 13.4635 8.81046 13.3446C8.69864 13.2257 8.63862 13.0672 8.6436 12.9041L8.87005 5.51966C8.8717 5.43861 8.88951 5.3587 8.92244 5.28462C8.95537 5.21054 9.00275 5.14378 9.06181 5.08825C9.12086 5.03271 9.19041 4.98952 9.26637 4.96121C9.34234 4.9329 9.42319 4.92003 9.50419 4.92337C9.66733 4.92843 9.8218 4.99807 9.93361 5.11699C10.0454 5.2359 10.1054 5.39435 10.1005 5.5575L9.87402 12.9419C9.86914 13.1017 9.80225 13.2534 9.6875 13.3647C9.57275 13.4761 9.41917 13.5384 9.25927 13.5385ZM4.58617 13.5385C4.42633 13.5384 4.27278 13.4761 4.15805 13.3648C4.04331 13.2536 3.97638 13.102 3.97142 12.9422L3.74497 5.55781C3.74246 5.47701 3.7559 5.39652 3.78452 5.32092C3.81313 5.24532 3.85636 5.1761 3.91174 5.11721C3.96711 5.05832 4.03355 5.01092 4.10724 4.97771C4.18094 4.9445 4.26046 4.92614 4.34126 4.92367C4.42213 4.92084 4.50277 4.93406 4.57851 4.96255C4.65426 4.99105 4.72361 5.03426 4.78256 5.0897C4.84152 5.14513 4.88891 5.2117 4.92201 5.28555C4.95511 5.3594 4.97325 5.43907 4.97539 5.51997L5.20185 12.9044C5.20435 12.9852 5.19091 13.0657 5.1623 13.1413C5.13368 13.2169 5.09045 13.2861 5.03508 13.345C4.9797 13.4039 4.91327 13.4513 4.83957 13.4845C4.76587 13.5177 4.68635 13.536 4.60556 13.5385H4.58617ZM7.07656 13.5385C6.91336 13.5385 6.75684 13.4737 6.64143 13.3583C6.52603 13.2429 6.4612 13.0863 6.4612 12.9231V5.53873C6.4612 5.37553 6.52603 5.21901 6.64143 5.1036C6.75684 4.9882 6.91336 4.92337 7.07656 4.92337C7.23977 4.92337 7.39629 4.9882 7.51169 5.1036C7.6271 5.21901 7.69193 5.37553 7.69193 5.53873V12.9231C7.69193 13.0863 7.6271 13.2429 7.51169 13.3583C7.39629 13.4737 7.23977 13.5385 7.07656 13.5385ZM10.7691 16H2.76869C2.60548 16 2.44896 15.9351 2.33356 15.8197C2.21815 15.7043 2.15332 15.5478 2.15332 15.3846C2.15332 15.2214 2.21815 15.0649 2.33356 14.9495C2.44896 14.8341 2.60548 14.7692 2.76869 14.7692H10.7691C10.9323 14.7692 11.0888 14.8341 11.2042 14.9495C11.3196 15.0649 11.3844 15.2214 11.3844 15.3846C11.3844 15.5478 11.3196 15.7043 11.2042 15.8197C11.0888 15.9351 10.9323 16 10.7691 16Z" fill="#D52928"/>
<path d="M11.3844 15.4151L11.353 15.4145C11.2723 15.4105 11.1932 15.3906 11.1201 15.356C11.0471 15.3213 10.9816 15.2727 10.9274 15.2127C10.8732 15.1528 10.8313 15.0827 10.8042 15.0066C10.7771 14.9304 10.7652 14.8497 10.7693 14.769L11.3555 3.04624C11.3644 2.8835 11.4372 2.73086 11.5581 2.62155C11.679 2.51224 11.8382 2.4551 12.001 2.46256C12.0817 2.46658 12.1609 2.48647 12.2339 2.5211C12.3069 2.55572 12.3724 2.6044 12.4266 2.66435C12.4808 2.7243 12.5227 2.79435 12.5498 2.87049C12.5769 2.94663 12.5888 3.02736 12.5847 3.10808L11.9985 14.8308C11.9907 14.9884 11.9225 15.1369 11.8082 15.2457C11.6939 15.3544 11.5422 15.4151 11.3844 15.4151Z" fill="#D52928"/>
<path d="M10.7711 16.0001C10.6079 16.0001 10.4514 15.9353 10.336 15.8199C10.2206 15.7045 10.1557 15.548 10.1557 15.3848C10.1557 15.2216 10.2206 15.0651 10.336 14.9497C10.4514 14.8342 10.6079 14.7694 10.7711 14.7694H10.7717C10.7889 14.4297 11.076 14.1642 11.4169 14.1857C11.4976 14.1898 11.5767 14.2097 11.6498 14.2443C11.7228 14.2789 11.7882 14.3276 11.8424 14.3875C11.8966 14.4475 11.9384 14.5176 11.9655 14.5937C11.9926 14.6698 12.0044 14.7506 12.0003 14.8313C11.9847 15.1467 11.8484 15.444 11.6195 15.6616C11.3907 15.8792 11.0869 16.0005 10.7711 16.0001ZM2.15564 15.4155C1.99784 15.4154 1.84612 15.3547 1.73182 15.2459C1.61753 15.1371 1.54939 14.9886 1.5415 14.831L0.955367 3.10821C0.951307 3.0275 0.963182 2.94678 0.990317 2.87066C1.01745 2.79454 1.05931 2.72451 1.11351 2.66457C1.22297 2.54351 1.37604 2.47089 1.53904 2.46269C1.70204 2.45449 1.86163 2.51138 1.98269 2.62084C2.10374 2.7303 2.17636 2.88337 2.18456 3.04637L2.7707 14.7694C2.77476 14.8501 2.76289 14.9308 2.73575 15.007C2.70862 15.0831 2.66676 15.1531 2.61256 15.2131C2.55836 15.273 2.49288 15.3217 2.41987 15.3563C2.34685 15.391 2.26773 15.4109 2.18702 15.4149L2.15564 15.4155Z" fill="#D52928"/>
<path d="M2.7705 15.9999C2.45465 16.0002 2.15081 15.8789 1.92195 15.6613C1.6931 15.4436 1.5568 15.1462 1.54131 14.8307C1.5331 14.6677 1.58999 14.5081 1.69945 14.3871C1.80891 14.266 1.96198 14.1934 2.12498 14.1852C2.28798 14.177 2.44757 14.2339 2.56862 14.3433C2.68968 14.4528 2.7623 14.6059 2.7705 14.7689V14.7695C2.85245 14.7676 2.93394 14.7822 3.01018 14.8123C3.08643 14.8424 3.15589 14.8874 3.2145 14.9447C3.2731 15.002 3.31967 15.0705 3.35146 15.146C3.38325 15.2216 3.39963 15.3027 3.39963 15.3847C3.39963 15.4667 3.38325 15.5478 3.35146 15.6233C3.31967 15.6989 3.2731 15.7673 3.2145 15.8246C3.15589 15.882 3.08643 15.927 3.01018 15.9571C2.93394 15.9872 2.85245 16.0017 2.7705 15.9999ZM9.23185 3.69256C9.06865 3.69256 8.91213 3.62772 8.79672 3.51232C8.68132 3.39692 8.61649 3.2404 8.61649 3.07719V1.23109C8.61649 1.06788 8.68132 0.911363 8.79672 0.795959C8.91213 0.680556 9.06865 0.615723 9.23185 0.615723C9.39506 0.615723 9.55158 0.680556 9.66698 0.795959C9.78239 0.911363 9.84722 1.06788 9.84722 1.23109V3.07719C9.84722 3.2404 9.78239 3.39692 9.66698 3.51232C9.55158 3.62772 9.39506 3.69256 9.23185 3.69256ZM4.30892 3.69256C4.14571 3.69256 3.98919 3.62772 3.87379 3.51232C3.75838 3.39692 3.69355 3.2404 3.69355 3.07719V1.23109C3.69355 1.06788 3.75838 0.911363 3.87379 0.795959C3.98919 0.680556 4.14571 0.615723 4.30892 0.615723C4.47212 0.615723 4.62864 0.680556 4.74405 0.795959C4.85945 0.911363 4.92428 1.06788 4.92428 1.23109V3.07719C4.92428 3.2404 4.85945 3.39692 4.74405 3.51232C4.62864 3.62772 4.47212 3.69256 4.30892 3.69256Z" fill="#D52928"/>
<path d="M12.9239 3.6922H0.615367C0.452161 3.6922 0.29564 3.62737 0.180237 3.51196C0.0648329 3.39656 0 3.24004 0 3.07683C0 2.91363 0.0648329 2.75711 0.180237 2.6417C0.29564 2.5263 0.452161 2.46147 0.615367 2.46147H12.9242C13.0051 2.46149 13.0851 2.47742 13.1597 2.50837C13.2344 2.53931 13.3022 2.58466 13.3593 2.64181C13.4165 2.69897 13.4618 2.76682 13.4927 2.84149C13.5236 2.91615 13.5395 2.99618 13.5395 3.07699C13.5394 3.1578 13.5235 3.23782 13.4926 3.31247C13.4616 3.38712 13.4163 3.45495 13.3591 3.51207C13.302 3.5692 13.2341 3.61451 13.1594 3.64542C13.0848 3.67632 13.0047 3.69222 12.9239 3.6922ZM4.30788 1.8461C4.14472 1.84602 3.98828 1.78115 3.87294 1.66576C3.75761 1.55036 3.69282 1.39389 3.69282 1.23073C3.69282 0.551984 4.2448 0 4.92355 0C5.08676 0 5.24328 0.0648331 5.35868 0.180237C5.47408 0.29564 5.53892 0.452161 5.53892 0.615367C5.53892 0.778572 5.47408 0.935093 5.35868 1.0505C5.24328 1.1659 5.08676 1.23073 4.92355 1.23073H4.92293C4.92293 1.57072 4.64787 1.8461 4.30788 1.8461Z" fill="#D52928"/>
<path d="M8.61518 1.23073H4.92298C4.75978 1.23073 4.60326 1.1659 4.48785 1.0505C4.37245 0.935093 4.30762 0.778572 4.30762 0.615367C4.30762 0.452161 4.37245 0.29564 4.48785 0.180237C4.60326 0.0648331 4.75978 0 4.92298 0H8.61518C8.77839 0 8.93491 0.0648331 9.05032 0.180237C9.16572 0.29564 9.23055 0.452161 9.23055 0.615367C9.23055 0.778572 9.16572 0.935093 9.05032 1.0505C8.93491 1.1659 8.77839 1.23073 8.61518 1.23073Z" fill="#D52928"/>
<path d="M9.23164 1.84641C9.06843 1.84641 8.91191 1.78158 8.79651 1.66617C8.6811 1.55077 8.61627 1.39425 8.61627 1.23104V1.23043C8.53386 1.23303 8.45177 1.21905 8.37487 1.18932C8.29797 1.15958 8.22783 1.11469 8.16862 1.05732C8.1094 0.999952 8.06232 0.931266 8.03017 0.855345C7.99801 0.779424 7.98145 0.697816 7.98145 0.615367C7.98145 0.532918 7.99801 0.45131 8.03017 0.375389C8.06232 0.299468 8.1094 0.230782 8.16862 0.173411C8.22783 0.11604 8.29797 0.0711535 8.37487 0.0414171C8.45177 0.0116806 8.53386 -0.00229923 8.61627 0.000307702C9.29502 0.000307702 9.847 0.552292 9.847 1.23104C9.847 1.39425 9.78217 1.55077 9.66677 1.66617C9.55136 1.78158 9.39484 1.84641 9.23164 1.84641Z" fill="#D52928"/>
</svg>
