<svg width="16" height="16" viewBox="0 0 16 16" fill="none" xmlns="http://www.w3.org/2000/svg">
<path d="M10.9045 6.92624V3.8983C10.9045 3.81165 10.8645 3.73156 10.8079 3.66821L7.41308 0.103406C7.34967 0.0367499 7.25964 0 7.16964 0H1.78737C0.793686 0 0 0.810311 0 1.80406V11.9817C0 12.9754 0.793686 13.7724 1.78734 13.7724H6.03586C6.83946 15.1063 8.30014 16 9.9641 16C12.4918 16 14.556 13.9458 14.556 11.4148C14.5594 9.20383 12.972 7.35642 10.9045 6.92627V6.92624ZM7.50317 1.17056L9.78073 3.56815H8.30345C7.86327 3.56815 7.50314 3.20471 7.50314 2.76456L7.50317 1.17056ZM1.78734 13.1054C1.16381 13.1054 0.666999 12.6052 0.666999 11.9817V1.80406C0.666999 1.17712 1.16381 0.666999 1.78734 0.666999H6.83617V2.76449C6.83617 3.57481 7.49314 4.23512 8.30345 4.23512H10.2375V6.83949C10.1375 6.83617 10.0575 6.82614 9.97079 6.82614C8.80698 6.82614 7.73655 7.27305 6.92955 7.97336H2.69446C2.511 7.97336 2.36096 8.12339 2.36096 8.30673C2.36096 8.49023 2.51096 8.64023 2.69446 8.64023H6.3093C6.07249 8.97373 5.87571 9.30723 5.72243 9.67404H2.69443C2.51096 9.67404 2.36093 9.82407 2.36093 10.0075C2.36093 10.1909 2.51093 10.341 2.69443 10.341H5.50558C5.42221 10.6745 5.37886 11.0447 5.37886 11.4148C5.37886 12.015 5.49555 12.6086 5.70564 13.1088H1.78734V13.1054ZM9.96751 15.3364C7.80661 15.3364 6.04918 13.5789 6.04918 11.4181C6.04918 9.25717 7.80323 7.49974 9.96751 7.49974C12.1317 7.49974 13.8857 9.25717 13.8857 11.4181C13.8857 13.5789 12.1284 15.3364 9.96751 15.3364Z" fill="#0A8944"/>
<path d="M2.69434 6.9697H6.07237C6.25584 6.9697 6.40587 6.81958 6.40587 6.6362C6.40587 6.45277 6.25587 6.30273 6.07237 6.30273H2.69434C2.51087 6.30273 2.36084 6.45273 2.36084 6.6362C2.36084 6.81958 2.51084 6.9697 2.69434 6.9697ZM11.6747 11.3481L10.3042 12.8254V9.18395C10.3042 9.00048 10.1541 8.85045 9.97068 8.85045C9.78725 8.85045 9.63721 9.00045 9.63721 9.18395V12.8254L8.25659 11.3481C8.12987 11.2148 7.9165 11.2048 7.78309 11.3315C7.64965 11.4582 7.63965 11.6683 7.76647 11.8017L9.71728 13.8993C9.78062 13.9659 9.86728 14.006 9.96072 14.006C10.0541 14.006 10.1407 13.966 10.2041 13.8993L12.1583 11.8018C12.285 11.6683 12.2783 11.455 12.1449 11.3315C12.0082 11.2048 11.8015 11.2148 11.6747 11.3481Z" fill="#0A8944"/>
</svg>
