<svg width="17" height="16" viewBox="0 0 17 16" fill="none" xmlns="http://www.w3.org/2000/svg">
<path d="M13.6827 7.99936C13.367 7.99936 13.1112 8.25521 13.1112 8.57082V14.2852C13.1112 14.6008 12.8554 14.8566 12.5397 14.8566H2.25387C1.93826 14.8566 1.68242 14.6008 1.68242 14.2852V2.85641C1.68242 2.5408 1.93826 2.28496 2.25387 2.28496H9.11115C9.42675 2.28496 9.6826 2.02912 9.6826 1.71351C9.6826 1.3979 9.42675 1.14209 9.11115 1.14209H2.25387C1.30708 1.14209 0.539551 1.90962 0.539551 2.85641V14.2852C0.539551 15.232 1.30708 15.9995 2.25387 15.9995H12.5398C13.4866 15.9995 14.2541 15.232 14.2541 14.2852V8.57078C14.2541 8.25521 13.9983 7.99936 13.6827 7.99936Z" fill="#02306A"/>
<path d="M15.8988 0.640803C15.6957 0.437616 15.4545 0.276444 15.189 0.166494C14.9235 0.0565452 14.639 -2.71388e-05 14.3517 9.17368e-06C14.0643 -0.000826339 13.7795 0.0554182 13.514 0.165481C13.2484 0.275543 13.0074 0.437233 12.8048 0.641171L5.2778 8.16757C5.21536 8.23049 5.16824 8.30694 5.14009 8.391L3.99722 11.8196C3.89747 12.1191 4.05936 12.4426 4.3588 12.5424C4.41689 12.5617 4.47773 12.5716 4.53894 12.5717C4.60029 12.5716 4.66123 12.5617 4.71951 12.5425L8.14815 11.3997C8.23235 11.3715 8.30886 11.3242 8.37158 11.2614L15.8986 3.73438C16.7529 2.88017 16.753 1.49512 15.8988 0.640803ZM15.0906 2.92691L7.66184 10.3556L5.44237 11.0968L6.18123 8.88015L13.6128 1.45145C14.0214 1.0437 14.6831 1.04437 15.0909 1.45293C15.2857 1.64809 15.3954 1.91232 15.3963 2.18804C15.3966 2.32528 15.3698 2.46123 15.3173 2.58805C15.2648 2.71486 15.1878 2.83003 15.0906 2.92691Z" fill="#02306A"/>
</svg>
