<svg width="26" height="26" viewBox="0 0 26 26" fill="none" xmlns="http://www.w3.org/2000/svg">
<path d="M23.8333 7.89047C23.8333 10.7522 21.4079 13.0724 18.4167 13.0724C18.0649 13.0729 17.7142 13.0404 17.3688 12.9755C17.12 12.9288 16.9957 12.9055 16.9089 12.9187C16.8221 12.9319 16.699 12.9973 16.453 13.1282C15.7571 13.4983 14.9456 13.629 14.1651 13.4839C14.4617 13.119 14.6643 12.6812 14.7537 12.2119C14.8079 11.9248 14.6737 11.646 14.4727 11.4419C13.5596 10.5147 13 9.26541 13 7.89047C13 5.02876 15.4254 2.7085 18.4167 2.7085C21.4079 2.7085 23.8333 5.02876 23.8333 7.89047Z" stroke="white" stroke-linejoin="round"/>
<path d="M16.7832 8.125H16.792M20.0332 8.125H20.042" stroke="white" stroke-linecap="round"/>
<path d="M8.12689 23.2918H5.11119C4.76095 23.2918 4.40923 23.2424 4.08755 23.1042C3.04039 22.6543 2.5091 22.0603 2.2615 21.6886C2.12062 21.4772 2.14068 21.2078 2.29353 21.0048C3.50676 19.3933 6.32483 18.42 8.13204 18.4199C9.93925 18.42 12.7522 19.3933 13.9654 21.0048C14.1182 21.2078 14.1383 21.4772 13.9974 21.6886C13.7498 22.0603 13.2185 22.6543 12.1714 23.1042C11.8497 23.2424 11.498 23.2918 11.1477 23.2918H8.12689Z" stroke="white" stroke-linecap="round" stroke-linejoin="round"/>
<path d="M11.1422 12.7713C11.1422 14.4302 9.79442 15.775 8.13188 15.775C6.46934 15.775 5.12158 14.4302 5.12158 12.7713C5.12158 11.1124 6.46934 9.76758 8.13188 9.76758C9.79442 9.76758 11.1422 11.1124 11.1422 12.7713Z" stroke="white" stroke-linecap="round" stroke-linejoin="round"/>
</svg>
