<svg width="26" height="26" viewBox="0 0 26 26" fill="none" xmlns="http://www.w3.org/2000/svg">
<path d="M15.7082 9.74984C15.7082 11.2456 14.4956 12.4582 12.9998 12.4582C11.5041 12.4582 10.2915 11.2456 10.2915 9.74984C10.2915 8.25407 11.5041 7.0415 12.9998 7.0415C14.4956 7.0415 15.7082 8.25407 15.7082 9.74984Z" stroke="white"/>
<path d="M14.362 18.9512C13.9966 19.3031 13.5083 19.4998 13 19.4998C12.4917 19.4998 12.0034 19.3031 11.638 18.9512C8.292 15.709 3.80796 12.0872 5.99469 6.82888C7.17703 3.98577 10.0152 2.1665 13 2.1665C15.9848 2.1665 18.823 3.98577 20.0053 6.82888C22.1893 12.0805 17.7163 15.7202 14.362 18.9512Z" stroke="white"/>
<path d="M19.5 21.6665C19.5 22.8631 16.5899 23.8332 13 23.8332C9.41015 23.8332 6.5 22.8631 6.5 21.6665" stroke="white" stroke-linecap="round"/>
</svg>
