<svg width="26" height="26" viewBox="0 0 26 26" fill="none" xmlns="http://www.w3.org/2000/svg">
<path d="M5.61158 16.5709C4.2492 17.3695 0.677151 19 2.85277 21.0403C3.91554 22.037 5.0992 22.7498 6.58734 22.7498H15.079C16.5671 22.7498 17.7508 22.037 18.8136 21.0403C20.9892 19 17.4171 17.3695 16.0548 16.5709C12.86 14.6984 8.80631 14.6984 5.61158 16.5709Z" stroke="white" stroke-linecap="round" stroke-linejoin="round"/>
<path d="M15.1667 7.58333C15.1667 9.97657 13.2266 11.9167 10.8333 11.9167C8.4401 11.9167 6.5 9.97657 6.5 7.58333C6.5 5.1901 8.4401 3.25 10.8333 3.25C13.2266 3.25 15.1667 5.1901 15.1667 7.58333Z" stroke="white"/>
<path d="M21.1445 3.71936L21.7164 4.87268C21.7944 5.03323 22.0024 5.18723 22.1779 5.21672L23.2145 5.39037C23.8774 5.50177 24.0334 5.98669 23.5557 6.46506L22.7498 7.27763C22.6133 7.41524 22.5386 7.68064 22.5808 7.87068L22.8116 8.87656C22.9935 9.67275 22.5743 9.98074 21.8757 9.56463L20.904 8.98469C20.7285 8.87984 20.4393 8.87984 20.2606 8.98469L19.2889 9.56463C18.5935 9.98074 18.1711 9.66947 18.353 8.87656L18.5838 7.87068C18.626 7.68064 18.5513 7.41524 18.4148 7.27763L17.6089 6.46506C17.1344 5.98669 17.2872 5.50177 17.9501 5.39037L18.9867 5.21672C19.159 5.18723 19.3669 5.03323 19.4449 4.87268L20.0169 3.71936C20.3288 3.09355 20.8358 3.09355 21.1445 3.71936Z" stroke="white" stroke-linecap="round" stroke-linejoin="round"/>
</svg>
