<svg width="24" height="28" viewBox="0 0 24 28" fill="none" xmlns="http://www.w3.org/2000/svg">
<path d="M16.2028 19.6182C15.4777 19.6182 14.8877 20.2081 14.8877 20.9333C14.8877 21.6584 15.4777 22.2484 16.2028 22.2484C16.928 22.2484 17.518 21.6584 17.518 20.9333C17.518 20.2081 16.928 19.6182 16.2028 19.6182ZM16.2028 21.4541C15.9157 21.4541 15.682 21.2205 15.682 20.9333C15.682 20.6461 15.9157 20.4125 16.2028 20.4125C16.49 20.4125 16.7236 20.6461 16.7236 20.9333C16.7236 21.2205 16.49 21.4541 16.2028 21.4541Z" fill="white"/>
<path d="M23.0471 24.7877H22.7939C22.8482 24.5589 22.812 24.7265 22.8227 20.6797C22.8227 20.6276 22.8125 20.5759 22.7925 20.5277C22.7726 20.4795 22.7433 20.4358 22.7064 20.3989C22.6695 20.362 22.6258 20.3327 22.5776 20.3128C22.5294 20.2928 22.4777 20.2825 22.4256 20.2826C22.3734 20.2825 22.3218 20.2928 22.2736 20.3128C22.2254 20.3327 22.1816 20.362 22.1447 20.3989C22.1078 20.4358 22.0786 20.4795 22.0586 20.5277C22.0386 20.5759 22.0284 20.6276 22.0284 20.6797V24.5495C22.0284 24.6786 21.9193 24.7878 21.7901 24.7878H10.6158C10.4866 24.7878 10.3774 24.6787 10.3774 24.5495V17.3173C10.3774 17.1882 10.4866 17.079 10.6158 17.079H21.7901C21.9192 17.079 22.0284 17.1881 22.0284 17.3173V18.8262C22.0284 18.8783 22.0386 18.93 22.0586 18.9782C22.0786 19.0264 22.1078 19.0702 22.1447 19.107C22.1816 19.1439 22.2254 19.1732 22.2736 19.1931C22.3218 19.2131 22.3734 19.2234 22.4256 19.2233C22.4777 19.2234 22.5294 19.2131 22.5776 19.1931C22.6258 19.1732 22.6695 19.1439 22.7064 19.107C22.7433 19.0702 22.7726 19.0264 22.7925 18.9782C22.8125 18.93 22.8227 18.8783 22.8227 18.8262V17.3173C22.8227 16.7479 22.3594 16.2846 21.7901 16.2846H13.3677L12.482 15.9834C12.4493 15.9721 12.421 15.951 12.4009 15.9229C12.3809 15.8948 12.3701 15.8611 12.3701 15.8266V14.8532C13.8118 13.9964 14.7382 12.5217 14.9073 10.9117C16.1228 10.968 16.956 9.8074 16.4517 8.80093V5.56289C16.4517 3.22124 15.1782 2.40666 14.7891 2.21244C12.5452 -0.466286 7.92008 -0.855997 5.07821 1.83608C4.81611 2.08219 4.99222 2.52283 5.35021 2.52283C5.64276 2.52283 5.59813 2.31802 6.5023 1.73018C6.56928 1.6867 6.69911 1.61009 6.69376 1.61326C9.03573 0.207499 12.4904 0.63814 14.2321 2.78568C14.2766 2.84059 14.3309 2.88109 14.3972 2.90587C14.4487 2.92652 15.6573 3.43516 15.6573 5.56294V8.0698C15.4369 7.9765 15.1953 7.92869 14.9378 7.93589V6.63671C14.9378 6.30715 14.6895 6.03478 14.3603 6.00301C13.6928 5.93857 13.3188 5.50364 13.1225 5.1502C12.8769 4.70786 12.2904 4.60185 11.906 4.93041C10.135 6.4444 8.09587 6.52128 6.69689 6.31944C5.63678 6.16636 4.65689 6.88992 4.4865 7.93637C4.23139 7.92488 3.97693 7.97043 3.74165 8.06969C3.76654 6.83279 3.55649 5.49384 4.53632 3.78531C4.58874 3.69394 4.60271 3.58549 4.57517 3.48382C4.54762 3.38214 4.48081 3.29558 4.38944 3.24316C4.29807 3.19075 4.18962 3.17677 4.08794 3.20432C3.98627 3.23187 3.8997 3.29867 3.84729 3.39005C3.2497 4.4321 2.96075 5.63591 2.95302 6.49152C2.94312 6.7477 2.9491 6.65392 2.94735 8.80077C2.44232 9.80862 3.27882 10.9677 4.49174 10.9115C4.66579 12.5685 5.64779 14.0953 7.17719 14.9385V15.8265C7.17719 15.8973 7.13219 15.9602 7.06552 15.9831C5.49117 16.5335 7.34647 15.8642 3.21883 17.328C2.8585 17.4348 2.93841 17.407 2.79618 17.4649C1.91086 17.8368 1.36373 18.5478 1.18688 19.4223C-0.052091 25.6455 -0.00501873 25.2926 0.00340028 25.631C0.0420536 26.6119 0.669614 27.1102 1.63605 27.1102H11.0752C11.1274 27.1102 11.179 27.0999 11.2272 27.0799C11.2754 27.06 11.3192 27.0307 11.3561 26.9938C11.3929 26.957 11.4222 26.9132 11.4422 26.865C11.4621 26.8168 11.4724 26.7651 11.4724 26.713C11.4724 26.6608 11.4621 26.6092 11.4422 26.561C11.4222 26.5128 11.3929 26.469 11.3561 26.4321C11.3192 26.3952 11.2754 26.366 11.2272 26.346C11.179 26.3261 11.1274 26.3158 11.0752 26.3158H9.77364C9.21846 26.3157 9.03462 25.582 9.35899 25.582H23.0472C23.3721 25.582 23.1862 26.3158 22.6326 26.3158H12.9286C12.8765 26.3158 12.8248 26.3261 12.7766 26.346C12.7285 26.366 12.6847 26.3952 12.6478 26.4321C12.6109 26.469 12.5816 26.5128 12.5617 26.561C12.5417 26.6092 12.5315 26.6608 12.5315 26.713C12.5315 26.7651 12.5417 26.8168 12.5617 26.865C12.5816 26.9132 12.6109 26.957 12.6478 26.9938C12.6847 27.0307 12.7285 27.06 12.7766 27.0799C12.8248 27.0999 12.8765 27.1102 12.9286 27.1102H22.6324C23.387 27.1102 24.001 26.4962 24.001 25.7415C24.001 25.2156 23.5731 24.7877 23.0471 24.7877ZM14.9378 8.73051C15.3957 8.70631 15.8058 9.01485 15.8058 9.42415C15.8058 9.83747 15.3914 10.1418 14.9378 10.1178V8.73051ZM4.46108 10.1178C4.00312 10.1421 3.59302 9.83345 3.59302 9.42415C3.59302 9.01082 4.00741 8.70647 4.46108 8.73045V10.1178ZM5.26179 10.5737C5.25173 10.3899 5.25665 10.4564 5.25543 8.40926C5.26735 8.34254 5.16997 7.79663 5.65409 7.37732C5.78044 7.26803 5.92881 7.18721 6.08916 7.14034C6.2495 7.09347 6.41805 7.08166 6.58336 7.10569C8.14448 7.3312 10.4249 7.2414 12.4221 5.53425L12.428 5.53578C12.8116 6.22667 13.417 6.66282 14.1434 6.77592C14.1434 10.3661 14.1899 10.7161 14.0114 11.4268C13.9016 11.866 13.7121 12.3094 13.4816 12.6815C11.1507 16.3655 5.47899 14.9172 5.26179 10.5737ZM3.6348 26.3159H1.63589C0.955967 26.3159 0.834076 25.9941 0.803895 25.7138C0.772443 25.4215 0.837253 25.2904 1.11074 23.8715H3.6348V26.3159ZM9.35883 24.7878C8.71342 24.7878 8.20707 25.4129 8.48235 26.1951C8.49688 26.2361 8.51319 26.2764 8.53122 26.316H4.42921V22.5724C4.42921 22.5202 4.41894 22.4686 4.39899 22.4204C4.37903 22.3722 4.34977 22.3284 4.31289 22.2915C4.27601 22.2546 4.23222 22.2254 4.18403 22.2054C4.13584 22.1855 4.08419 22.1752 4.03203 22.1752C3.97987 22.1752 3.92822 22.1855 3.88003 22.2054C3.83184 22.2254 3.78805 22.2546 3.75117 22.2915C3.71429 22.3284 3.68503 22.3722 3.66507 22.4204C3.64512 22.4686 3.63485 22.5202 3.63485 22.5724V23.0772H1.2689C2.01814 19.3167 1.97514 19.4741 2.05684 19.2573C2.22035 18.828 2.46392 18.5768 2.81344 18.3461C3.12421 18.1669 3.15942 18.1768 3.45117 18.0878C3.47219 18.0818 3.33188 18.1306 5.74061 17.2773L7.17942 16.7839C7.18905 17.4732 7.63066 18.0806 8.28554 18.2999C8.70013 18.4388 9.13607 18.5153 9.58312 18.5291C9.60833 24.5728 9.54696 24.5182 9.61087 24.7878H9.35883ZM9.58307 17.3172V17.7348C9.22217 17.7214 8.87121 17.6583 8.53774 17.5465C8.37304 17.4914 8.22985 17.3859 8.12847 17.2449C8.02709 17.1039 7.97265 16.9346 7.97287 16.7609C7.97192 15.7971 7.9744 16.3856 7.97139 15.2924C9.64952 15.876 10.9702 15.413 11.06 15.4061L11.0591 15.4029L11.0644 15.4014L11.0654 15.4047C11.2038 15.3597 11.2502 15.363 11.5757 15.2378V16.2844H10.6158C10.0464 16.2845 9.58307 16.7478 9.58307 17.3172Z" fill="white"/>
</svg>
