<svg width="24" height="20" viewBox="0 0 24 20" fill="none" xmlns="http://www.w3.org/2000/svg">
<path d="M11.9645 9.83954C13.5361 8.94 14.6099 7.26508 14.6099 5.3282C14.6099 2.45109 12.2692 0.110352 9.3921 0.110352C6.51498 0.110352 4.17425 2.45109 4.17425 5.3282C4.17425 7.26508 5.24808 8.94 6.81969 9.83954C2.88861 10.8716 0 14.1954 0 18.1349V19.4163C0 19.7044 0.233775 19.9381 0.521799 19.9381C0.809824 19.9381 1.0436 19.7044 1.0436 19.4163V18.1349C1.04355 13.9512 4.78894 10.546 9.3921 10.546C13.9953 10.546 17.7406 13.9512 17.7406 18.1349V19.4163C17.7406 19.7044 17.9744 19.9381 18.2624 19.9381C18.5505 19.9381 18.7842 19.7044 18.7842 19.4163V18.1349C18.7842 14.1954 15.8956 10.8706 11.9645 9.83954ZM5.21785 5.3282C5.21785 3.02611 7.09001 1.15395 9.3921 1.15395C11.6942 1.15395 13.5663 3.02611 13.5663 5.3282C13.5663 7.63029 11.6942 9.50245 9.3921 9.50245C7.09001 9.50245 5.21785 7.63034 5.21785 5.3282Z" fill="white"/>
<path d="M18.9898 9.85188C20.1211 9.10364 20.8704 7.82421 20.8704 6.37054C20.8704 4.06845 18.9982 2.19629 16.6961 2.19629C16.4081 2.19629 16.1743 2.43006 16.1743 2.71809C16.1743 3.00611 16.4081 3.23989 16.6961 3.23989C18.4222 3.23989 19.8268 4.64455 19.8268 6.37059C19.8268 8.09663 18.4222 9.50129 16.6961 9.50129C16.4081 9.50129 16.1743 9.73506 16.1743 10.0231C16.1743 10.3111 16.408 10.5448 16.6961 10.5448C20.1492 10.5448 22.9575 13.1401 22.9575 16.3313V17.3279C22.9575 17.616 23.1912 17.8497 23.4793 17.8497C23.7673 17.8497 24.0011 17.616 24.0011 17.3279V16.3313C24.0011 13.3155 21.8972 10.7535 18.9898 9.85188Z" fill="white"/>
</svg>
