<svg width="14" height="16" viewBox="0 0 14 16" fill="none" xmlns="http://www.w3.org/2000/svg">
<path d="M10.7791 6.85715H5.01906C4.84932 6.85715 4.68653 6.79694 4.56651 6.68978C4.44649 6.58262 4.37906 6.43727 4.37906 6.28572C4.37906 6.13417 4.44649 5.98882 4.56651 5.88166C4.68653 5.77449 4.84932 5.71429 5.01906 5.71429H10.7791C10.9488 5.71429 11.1116 5.77449 11.2316 5.88166C11.3516 5.98882 11.4191 6.13417 11.4191 6.28572C11.4191 6.43727 11.3516 6.58262 11.2316 6.68978C11.1116 6.79694 10.9488 6.85715 10.7791 6.85715ZM3.09906 5.71429C2.97248 5.71429 2.84874 5.7478 2.7435 5.81059C2.63825 5.87338 2.55622 5.96263 2.50778 6.06704C2.45934 6.17146 2.44666 6.28635 2.47136 6.3972C2.49605 6.50804 2.55701 6.60986 2.64651 6.68978C2.73602 6.76969 2.85006 6.82412 2.9742 6.84617C3.09835 6.86822 3.22703 6.8569 3.34398 6.81365C3.46092 6.7704 3.56088 6.69716 3.6312 6.60319C3.70152 6.50922 3.73906 6.39874 3.73906 6.28572C3.73906 6.13417 3.67163 5.98882 3.55161 5.88166C3.43159 5.77449 3.2688 5.71429 3.09906 5.71429ZM11.4191 8.57143C11.4191 8.41988 11.3516 8.27453 11.2316 8.16737C11.1116 8.06021 10.9488 8 10.7791 8H5.01906C4.84932 8 4.68653 8.06021 4.56651 8.16737C4.44649 8.27453 4.37906 8.41988 4.37906 8.57143C4.37906 8.72298 4.44649 8.86833 4.56651 8.97549C4.68653 9.08266 4.84932 9.14286 5.01906 9.14286H10.7791C10.9488 9.14286 11.1116 9.08266 11.2316 8.97549C11.3516 8.86833 11.4191 8.72298 11.4191 8.57143ZM3.09906 8C2.97248 8 2.84874 8.03352 2.7435 8.09631C2.63825 8.15909 2.55622 8.24834 2.50778 8.35276C2.45934 8.45717 2.44666 8.57207 2.47136 8.68291C2.49605 8.79376 2.55701 8.89558 2.64651 8.97549C2.73602 9.05541 2.85006 9.10983 2.9742 9.13188C3.09835 9.15393 3.22703 9.14261 3.34398 9.09936C3.46092 9.05611 3.56088 8.98287 3.6312 8.8889C3.70152 8.79493 3.73906 8.68445 3.73906 8.57143C3.73906 8.41988 3.67163 8.27453 3.55161 8.16737C3.43159 8.06021 3.2688 8 3.09906 8ZM11.4191 10.8571C11.4191 10.7056 11.3516 10.5602 11.2316 10.4531C11.1116 10.3459 10.9488 10.2857 10.7791 10.2857H5.01906C4.84932 10.2857 4.68653 10.3459 4.56651 10.4531C4.44649 10.5602 4.37906 10.7056 4.37906 10.8571C4.37906 11.0087 4.44649 11.154 4.56651 11.2612C4.68653 11.3684 4.84932 11.4286 5.01906 11.4286H10.7791C10.9488 11.4286 11.1116 11.3684 11.2316 11.2612C11.3516 11.154 11.4191 11.0087 11.4191 10.8571ZM3.09906 10.2857C2.97248 10.2857 2.84874 10.3192 2.7435 10.382C2.63825 10.4448 2.55622 10.5341 2.50778 10.6385C2.45934 10.7429 2.44666 10.8578 2.47136 10.9686C2.49605 11.0795 2.55701 11.1813 2.64651 11.2612C2.73602 11.3411 2.85006 11.3955 2.9742 11.4176C3.09835 11.4396 3.22703 11.4283 3.34398 11.3851C3.46092 11.3418 3.56088 11.2686 3.6312 11.1746C3.70152 11.0806 3.73906 10.9702 3.73906 10.8571C3.73906 10.7056 3.67163 10.5602 3.55161 10.4531C3.43159 10.3459 3.2688 10.2857 3.09906 10.2857ZM13.3391 3.90229V14.2857C13.3385 14.7402 13.1361 15.176 12.7761 15.4974C12.4162 15.8188 11.9281 15.9995 11.4191 16H2.45906C1.95 15.9995 1.46194 15.8188 1.10198 15.4974C0.742019 15.176 0.539571 14.7402 0.539062 14.2857V1.71429C0.539571 1.25977 0.742019 0.824003 1.10198 0.502611C1.46194 0.181218 1.95 0.00046101 2.45906 7.17305e-06H8.9685C9.22083 -0.000646724 9.47079 0.0434126 9.70391 0.129632C9.93703 0.215852 10.1487 0.342518 10.3266 0.502293L12.7765 2.68972C12.9554 2.84856 13.0973 3.03753 13.1939 3.24567C13.2904 3.45381 13.3398 3.677 13.3391 3.90229ZM9.49906 1.37944V2.85715C9.49923 3.00865 9.56671 3.15391 9.6867 3.26104C9.80668 3.36817 9.96937 3.42843 10.1391 3.42858H11.7941L9.49906 1.37944ZM12.0591 14.2857V4.57143H10.1391C9.63 4.57098 9.14193 4.39022 8.78197 4.06883C8.42201 3.74744 8.21957 3.31167 8.21906 2.85715V1.14286H2.45906C2.28937 1.14302 2.12669 1.20327 2.0067 1.3104C1.88671 1.41753 1.81923 1.56279 1.81906 1.71429V14.2857C1.81923 14.4372 1.88671 14.5825 2.0067 14.6896C2.12669 14.7967 2.28937 14.857 2.45906 14.8571H11.4191C11.5887 14.857 11.7514 14.7967 11.8714 14.6896C11.9914 14.5825 12.0589 14.4372 12.0591 14.2857Z" fill="#02306A"/>
</svg>
