<svg width="26" height="26" viewBox="0 0 26 26" fill="none" xmlns="http://www.w3.org/2000/svg">
<path d="M7.58317 21.1248C7.58317 22.6206 6.37061 23.8332 4.87484 23.8332C3.37907 23.8332 2.1665 22.6206 2.1665 21.1248C2.1665 19.6291 3.37907 18.4165 4.87484 18.4165C6.37061 18.4165 7.58317 19.6291 7.58317 21.1248Z" stroke="white"/>
<path d="M23.8332 21.1248C23.8332 22.6206 22.6206 23.8332 21.1248 23.8332C19.6291 23.8332 18.4165 22.6206 18.4165 21.1248C18.4165 19.6291 19.6291 18.4165 21.1248 18.4165C22.6206 18.4165 23.8332 19.6291 23.8332 21.1248Z" stroke="white"/>
<path d="M21.125 18.4165C20.9431 15.7591 19.928 15.1665 16.496 15.1665H9.50404C6.07201 15.1665 5.05687 15.7591 4.875 18.4165" stroke="white" stroke-linecap="round" stroke-linejoin="round"/>
<path d="M13 7.0415L14.0833 5.4165M17.875 7.0415C17.875 9.73389 15.6924 11.9165 13 11.9165C10.3076 11.9165 8.125 9.73389 8.125 7.0415C8.125 4.34912 10.3076 2.1665 13 2.1665C15.6924 2.1665 17.875 4.34912 17.875 7.0415Z" stroke="white" stroke-linecap="round"/>
</svg>
