<svg width="26" height="26" viewBox="0 0 26 26" fill="none" xmlns="http://www.w3.org/2000/svg">
<path d="M3.25 4.7665C3.25 3.54085 3.25 2.92803 3.63076 2.54727C4.01152 2.1665 4.62435 2.1665 5.85 2.1665H6.06667C7.29232 2.1665 7.90514 2.1665 8.28591 2.54727C8.66667 2.92803 8.66667 3.54085 8.66667 4.7665V4.98317C8.66667 6.20882 8.66667 6.82165 8.28591 7.20241C7.90514 7.58317 7.29232 7.58317 6.06667 7.58317H5.85C4.62435 7.58317 4.01152 7.58317 3.63076 7.20241C3.25 6.82165 3.25 6.20882 3.25 4.98317V4.7665Z" stroke="white"/>
<path d="M17.3335 10.183C17.3335 8.95736 17.3335 8.34453 17.7143 7.96377C18.095 7.58301 18.7078 7.58301 19.9335 7.58301H20.1502C21.3758 7.58301 21.9886 7.58301 22.3694 7.96377C22.7502 8.34453 22.7502 8.95736 22.7502 10.183V10.3997C22.7502 11.6253 22.7502 12.2382 22.3694 12.6189C21.9886 12.9997 21.3758 12.9997 20.1502 12.9997H19.9335C18.7078 12.9997 18.095 12.9997 17.7143 12.6189C17.3335 12.2382 17.3335 11.6253 17.3335 10.3997V10.183Z" stroke="white"/>
<path d="M3.25 15.6C3.25 14.3743 3.25 13.7615 3.63076 13.3808C4.01152 13 4.62435 13 5.85 13H6.06667C7.29232 13 7.90514 13 8.28591 13.3808C8.66667 13.7615 8.66667 14.3743 8.66667 15.6V15.8167C8.66667 17.0423 8.66667 17.6551 8.28591 18.0359C7.90514 18.4167 7.29232 18.4167 6.06667 18.4167H5.85C4.62435 18.4167 4.01152 18.4167 3.63076 18.0359C3.25 17.6551 3.25 17.0423 3.25 15.8167V15.6Z" stroke="white"/>
<path d="M17.3335 21.0165C17.3335 19.7909 17.3335 19.178 17.7143 18.7973C18.095 18.4165 18.7078 18.4165 19.9335 18.4165H20.1502C21.3758 18.4165 21.9886 18.4165 22.3694 18.7973C22.7502 19.178 22.7502 19.7909 22.7502 21.0165V21.2332C22.7502 22.4588 22.7502 23.0716 22.3694 23.4524C21.9886 23.8332 21.3758 23.8332 20.1502 23.8332H19.9335C18.7078 23.8332 18.095 23.8332 17.7143 23.4524C17.3335 23.0716 17.3335 22.4588 17.3335 21.2332V21.0165Z" stroke="white"/>
<path d="M8.6665 4.875L16.2498 10.2917L9.74984 15.7083L17.3332 21.125" stroke="white" stroke-linecap="round" stroke-linejoin="round"/>
</svg>
