<svg width="26" height="26" viewBox="0 0 26 26" fill="none" xmlns="http://www.w3.org/2000/svg">
<path d="M9.75 5.4165C9.75 3.88444 9.75 3.11841 10.226 2.64246C10.7019 2.1665 11.4679 2.1665 13 2.1665C14.5321 2.1665 15.2981 2.1665 15.774 2.64246C16.25 3.11841 16.25 3.88444 16.25 5.4165C16.25 6.94857 16.25 7.7146 15.774 8.19055C15.2981 8.6665 14.5321 8.6665 13 8.6665C11.4679 8.6665 10.7019 8.6665 10.226 8.19055C9.75 7.7146 9.75 6.94857 9.75 5.4165Z" stroke="white"/>
<path d="M2.1665 20.583C2.1665 19.0509 2.1665 18.2849 2.64246 17.809C3.11841 17.333 3.88444 17.333 5.4165 17.333C6.94857 17.333 7.7146 17.333 8.19055 17.809C8.6665 18.2849 8.6665 19.0509 8.6665 20.583C8.6665 22.1151 8.6665 22.8811 8.19055 23.3571C7.7146 23.833 6.94857 23.833 5.4165 23.833C3.88444 23.833 3.11841 23.833 2.64246 23.3571C2.1665 22.8811 2.1665 22.1151 2.1665 20.583Z" stroke="white"/>
<path d="M17.333 20.583C17.333 19.0509 17.333 18.2849 17.809 17.809C18.2849 17.333 19.0509 17.333 20.583 17.333C22.1151 17.333 22.8811 17.333 23.3571 17.809C23.833 18.2849 23.833 19.0509 23.833 20.583C23.833 22.1151 23.833 22.8811 23.3571 23.3571C22.8811 23.833 22.1151 23.833 20.583 23.833C19.0509 23.833 18.2849 23.833 17.809 23.3571C17.333 22.8811 17.333 22.1151 17.333 20.583Z" stroke="white"/>
<path d="M12.9998 8.6665V9.74984M12.9998 9.74984C12.9998 10.7594 12.9998 11.2641 13.1923 11.6623C13.4488 12.1932 13.9409 12.615 14.5603 12.8349C15.0248 12.9998 15.6137 12.9998 16.7915 12.9998C17.9693 12.9998 18.5582 12.9998 19.0227 13.1648C19.6421 13.3847 20.1342 13.8065 20.3908 14.3374C20.5832 14.7355 20.5832 15.2403 20.5832 16.2498V17.3332M12.9998 9.74984C12.9998 10.7594 12.9998 11.2641 12.8074 11.6623C12.5509 12.1932 12.0588 12.615 11.4394 12.8349C10.9749 12.9998 10.386 12.9998 9.20817 12.9998C8.03037 12.9998 7.44148 12.9998 6.97694 13.1648C6.35757 13.3847 5.86547 13.8065 5.60892 14.3374C5.4165 14.7355 5.4165 15.2403 5.4165 16.2498V17.3332" stroke="white" stroke-linecap="round" stroke-linejoin="round"/>
</svg>
