<svg width="132" height="44" viewBox="0 0 132 44" fill="none" xmlns="http://www.w3.org/2000/svg">
<path d="M18.5097 0L13.8819 2.68497L9.25528 5.36826L4.62785 8.05323L0 10.7369V32.2104L4.62785 29.5267L9.25528 26.8421V16.1052L13.8819 13.4215L18.5097 10.7369L23.1372 13.4215L27.7646 16.1052L32.3924 13.4215L37.0199 10.7369L32.3924 8.05323L27.7646 5.36826L23.1372 2.68497L18.5097 0Z" fill="#75CEC8"/>
<path d="M13.0196 16.1055L15.6907 20.755L18.3627 25.4042L21.0339 30.0533L23.7051 34.7007L23.7064 34.7029H2.33105L5.00223 39.3511L7.67425 44.0003H29.0475V43.9973L29.0496 44.0003L31.7207 39.3511L34.3928 34.7029H34.3911L31.7186 30.0533L29.0487 25.4063L29.0475 25.4042H29.0496L26.3775 20.755L23.7064 16.1055H13.0196Z" fill="#75CEC8"/>
<path d="M51.3068 30.4414C53.1549 32.0197 55.3537 32.8196 57.9031 32.841C60.9193 32.797 62.4482 31.6787 62.4897 29.4859C62.5116 27.69 61.5031 26.6103 59.4642 26.2467C58.5301 26.1143 57.5061 25.9654 56.3924 25.8003C54.3968 25.4587 52.8788 24.6929 51.8387 23.503C50.7662 22.2801 50.2301 20.7926 50.2304 19.0407C50.2304 16.9362 50.9037 15.2394 52.2502 13.9502C53.5544 12.6723 55.4047 12.0223 57.8013 12C60.6854 12.066 63.1931 12.895 65.3246 14.4871L63.3654 17.4845C61.6236 16.2937 59.7067 15.6761 57.6148 15.6315C56.5317 15.6315 55.6291 15.9124 54.9071 16.4741C54.1533 17.0584 53.7657 17.9288 53.7444 19.0855C53.7444 19.7797 54.0045 20.4078 54.5246 20.9698C55.0447 21.5425 55.878 21.939 57.0245 22.1594C57.6616 22.2699 58.532 22.3968 59.6359 22.5399C61.8122 22.8485 63.4205 23.6584 64.4607 24.9695C65.4908 26.259 66.0057 27.7574 66.0054 29.4648C65.889 34.0707 63.174 36.4066 57.8606 36.4725C54.4247 36.4725 51.4712 35.3772 49 33.1864L51.3068 30.4414Z" fill="#75CEC8"/>
<path d="M70.332 12.1993H78.7478C79.6362 12.1969 80.5224 12.2854 81.3929 12.4635C82.2429 12.6946 83.1034 13.1678 83.9745 13.8831C84.7058 14.4226 85.2995 15.1931 85.7557 16.1948C86.2326 17.1638 86.471 18.3086 86.471 19.6293C86.471 21.4126 85.8654 23.0361 84.6541 24.5C83.411 26.0411 81.5941 26.8337 79.2031 26.8776H73.8461V36.2748H70.332V12.1993ZM73.8461 23.4448H79.0639C80.3717 23.4228 81.3553 23.0024 82.0149 22.1837C82.6421 21.3875 82.9559 20.5028 82.9562 19.5296C82.9562 18.7224 82.8285 18.0421 82.5732 17.4889C82.3156 17.0007 81.9293 16.5932 81.4565 16.3111C80.733 15.8359 79.8929 15.6093 78.9364 15.6313H73.8461V23.4448Z" fill="#75CEC8"/>
<path d="M90.2842 12.1992H93.7982V32.8419H105.112V36.2752H90.2842V12.1992Z" fill="#75CEC8"/>
<path d="M112.519 12.1992H109.005V36.2748H112.519V12.1992Z" fill="#75CEC8"/>
<path d="M121.627 15.4342H115.266V12.1992H131.507V15.4342H125.141V36.2752H121.627V15.4342Z" fill="#75CEC8"/>
</svg>
