<svg width="24" height="24" viewBox="0 0 24 24" fill="none" xmlns="http://www.w3.org/2000/svg">
<path d="M16.3568 10.3894V5.84746C16.3568 5.71747 16.2968 5.59733 16.2118 5.50232L11.1196 0.155109C11.0245 0.0551249 10.8895 0 10.7545 0H2.68106C1.19053 0 0 1.21547 0 2.70609V17.9725C0 19.4631 1.19053 20.6587 2.68101 20.6587H9.05379C10.2592 22.6594 12.4502 24 14.9462 24C18.7377 24 21.834 20.9187 21.834 17.1221C21.8392 13.8057 19.458 11.0346 16.3568 10.3894V10.3894ZM11.2548 1.75584L14.6711 5.35222H12.4552C11.7949 5.35222 11.2547 4.80707 11.2547 4.14684L11.2548 1.75584ZM2.68101 19.6582C1.74572 19.6582 1.0005 18.9078 1.0005 17.9725V2.70609C1.0005 1.76568 1.74572 1.0005 2.68101 1.0005H10.2543V4.14674C10.2543 5.36221 11.2397 6.35267 12.4552 6.35267H15.3563V10.2592C15.2063 10.2543 15.0862 10.2392 14.9562 10.2392C13.2105 10.2392 11.6048 10.9096 10.3943 11.96H4.0417C3.76649 11.96 3.54145 12.1851 3.54145 12.4601C3.54145 12.7354 3.76645 12.9603 4.0417 12.9603H9.46395C9.10873 13.4606 8.81356 13.9608 8.58364 14.5111H4.04165C3.76645 14.5111 3.5414 14.7361 3.5414 15.0113C3.5414 15.2863 3.7664 15.5116 4.04165 15.5116H8.25837C8.13331 16.0118 8.0683 16.567 8.0683 17.1222C8.0683 18.0225 8.24333 18.9129 8.55847 19.6633H2.68101V19.6582ZM14.9513 23.0046C11.7099 23.0046 9.07376 20.3684 9.07376 17.1271C9.07376 13.8858 11.7049 11.2496 14.9513 11.2496C18.1975 11.2496 20.8286 13.8858 20.8286 17.1271C20.8286 20.3684 18.1926 23.0046 14.9513 23.0046Z" fill="#002F56"/>
<path d="M4.04175 10.4546H9.1088C9.384 10.4546 9.60905 10.2294 9.60905 9.9543C9.60905 9.67915 9.38405 9.4541 9.1088 9.4541H4.04175C3.76655 9.4541 3.5415 9.6791 3.5415 9.9543C3.5415 10.2294 3.7665 10.4546 4.04175 10.4546ZM17.5123 17.0222L15.4565 19.2381V13.7759C15.4565 13.5007 15.2313 13.2757 14.9563 13.2757C14.6811 13.2757 14.4561 13.5007 14.4561 13.7759V19.2381L12.3851 17.0222C12.1951 16.8222 11.875 16.8072 11.6749 16.9973C11.4747 17.1874 11.4597 17.5025 11.6499 17.7026L14.5762 20.8489C14.6712 20.9489 14.8012 21.0089 14.9413 21.0089C15.0813 21.0089 15.2113 20.9489 15.3064 20.8489L18.2377 17.7026C18.4278 17.5025 18.4177 17.1824 18.2176 16.9973C18.0125 16.8072 17.7025 16.8222 17.5123 17.0222Z" fill="#002F56"/>
</svg>
