<svg width="130" height="61" viewBox="0 0 130 61" fill="none" xmlns="http://www.w3.org/2000/svg">
<g clip-path="url(#clip0_137_3027)">
<mask id="mask0_137_3027" style="mask-type:luminance" maskUnits="userSpaceOnUse" x="0" y="0" width="130" height="61">
<path d="M130 0H0V61H130V0Z" fill="white"/>
</mask>
<g mask="url(#mask0_137_3027)">
<path d="M74.9658 39.8523V39.8789V48.4526C75.5156 48.4526 127.447 36.0906 127.447 36.0906C129.398 35.6253 130 35.1866 130 34.1897V25.2305C129.987 26.3471 128.416 27.2111 126.767 27.5967L74.9658 39.8523Z" fill="#009969"/>
<path d="M74.9658 52.399V52.4256V60.9993C75.5156 60.9993 127.447 48.6373 127.447 48.6373C129.398 48.1721 130 47.7335 130 46.7364V37.7773C129.987 38.8938 128.416 39.7579 126.767 40.1434L74.9658 52.399Z" fill="#00594F"/>
<path d="M78.2509 23.0113L82.1772 23.9152C87.5432 22.6392 94.0738 21.0973 101.403 19.3692L74.9658 13.2812V20.8846C74.9658 21.9879 75.8559 22.4665 78.2509 23.0113Z" fill="#C7C8C9"/>
<path d="M110.643 17.1872L78.2509 9.73014C75.8559 9.18514 74.9658 8.7066 74.9658 7.60333V0L128.18 12.2557C127.631 12.9071 126.558 13.4122 125.432 13.6913H125.419L110.643 17.1872Z" fill="#C7C8C9"/>
<path d="M74.2855 27.3812L66.7207 37.8691C67.4798 37.6963 127.448 23.4733 127.448 23.4733C129.398 23.008 130 22.5694 130 21.5725V12.6133C129.987 13.7299 128.416 14.5939 126.767 14.9794L74.2855 27.3812Z" fill="#4CC2BF"/>
<path d="M2.42141 16.4936V25.0938C2.42141 25.7186 2.32979 26.1307 2.13348 26.37C1.93716 26.5958 1.66233 26.7155 1.2697 26.7155C0.916329 26.7155 0.497523 26.5958 0.0263672 26.37V28.7758C0.916329 29.0816 1.67541 29.2278 2.26435 29.2278C2.94492 29.2278 3.53386 29.0816 4.01811 28.7758C4.50235 28.4702 4.85572 28.0315 5.0782 27.4599C5.3007 26.8883 5.41849 26.0243 5.41849 24.8678V15.7891L2.42141 16.4936Z" fill="#54565B"/>
<path d="M12.1836 11.9219L9.18652 12.6397V21.1601C9.18652 22.3167 9.30431 23.1806 9.52681 23.7522C9.74929 24.3238 10.1027 24.7625 10.5869 25.0683C11.0711 25.3739 11.647 25.5201 12.3145 25.5201L45.3346 25.5068C45.9367 25.4803 46.4602 25.3341 46.9052 25.0548C47.3894 24.7492 47.7428 24.3105 47.9653 23.7389C48.1878 23.1673 48.3056 22.3033 48.3056 21.1469V16.5609L45.3085 17.2787V20.7348C45.3085 21.3463 45.2169 21.7717 45.0205 22.0109C44.8636 22.2103 44.6279 22.3167 44.327 22.3432H38.961L38.9217 21.4526C38.9217 20.6683 38.7778 19.8974 38.4898 19.0466C38.2018 18.196 37.7177 17.4649 37.0501 16.8269C36.3827 16.2021 35.5059 15.697 34.4326 15.338C33.3595 14.9791 32.0376 14.7931 30.4801 14.7931C29.8912 14.7931 29.3807 14.8064 28.975 14.8196C28.5693 14.8329 28.9097 14.8728 28.5956 14.8994L28.3206 17.8237C28.6348 17.7839 29.0143 17.7573 29.4462 17.744C29.8781 17.7307 30.3624 17.7175 30.8859 17.7175C31.8151 17.7175 32.6004 17.7972 33.2417 17.97C33.883 18.1428 34.4064 18.4086 34.8122 18.7808C35.2179 19.1529 35.5189 19.6315 35.6891 20.2297C35.8591 20.8013 35.9509 21.5059 35.9509 22.3432H13.1652C12.8642 22.3167 12.6417 22.2103 12.4715 22.0109C12.2752 21.7849 12.1836 21.3596 12.1836 20.7348V11.9219Z" fill="#54565B"/>
<path d="M53.9205 28.379C54.1169 28.379 54.3525 28.4588 54.5619 28.5386C54.7975 28.6581 54.9546 28.738 55.0855 28.8178V27.3684C54.85 27.2489 54.6012 27.1292 54.4048 27.0494C54.1692 26.9696 53.9728 26.9297 53.7241 26.9297C53.4492 26.9297 53.1612 26.9696 52.9255 27.0494C52.6506 27.1292 52.4412 27.2489 52.2449 27.4084C52.0878 27.5281 51.9306 27.7674 51.8128 28.0199C51.6951 28.2991 51.6558 28.5916 51.6558 28.9508C51.6558 29.0305 51.6558 29.1501 51.6951 29.3098C51.7342 29.4293 51.7735 29.5888 51.8128 29.6687H50.9749H50.8965V30.9584H55.0332V29.6288H53.3183C53.2398 29.549 53.2005 29.4293 53.1612 29.2698C53.1219 29.1103 53.1219 29.0305 53.1219 28.9508C53.1219 28.7113 53.2005 28.5518 53.3576 28.4588C53.5146 28.379 53.7241 28.379 53.9205 28.379Z" fill="#54565B"/>
<path d="M41.4621 27.4883C41.0039 27.4883 40.6112 27.6479 40.2709 27.9937C39.9305 28.3392 39.7734 28.7382 39.7734 29.2434C39.7734 29.7088 39.9305 30.1076 40.2709 30.4533C40.5719 30.7991 41.0039 30.9586 41.4621 30.9586C41.9203 30.9586 42.3393 30.7591 42.6534 30.4533C42.9938 30.1076 43.1509 29.7088 43.1509 29.2434C43.1509 28.7382 42.9938 28.3527 42.6534 27.9937C42.3 27.6479 41.9203 27.4883 41.4621 27.4883Z" fill="#54565B"/>
<path d="M45.7279 27.4883C45.2697 27.4883 44.877 27.6479 44.5365 27.9937C44.1963 28.3392 44.0391 28.7382 44.0391 29.2434C44.0391 29.7088 44.1963 30.1076 44.5365 30.4533C44.8377 30.7991 45.2697 30.9586 45.7279 30.9586C46.186 30.9586 46.5787 30.7591 46.9192 30.4533C47.2594 30.1076 47.4166 29.7088 47.4166 29.2434C47.4166 28.7382 47.2594 28.3527 46.9192 27.9937C46.5657 27.6479 46.186 27.4883 45.7279 27.4883Z" fill="#54565B"/>
<path d="M31.0823 27.4883C30.6242 27.4883 30.2314 27.6479 29.891 27.9937C29.5508 28.3392 29.3936 28.7382 29.3936 29.2434C29.3936 29.7088 29.5508 30.1076 29.891 30.4533C30.1921 30.7991 30.6242 30.9586 31.0823 30.9586C31.5405 30.9586 31.9594 30.7591 32.2737 30.4533C32.6139 30.1076 32.7711 29.7088 32.7711 29.2434C32.7711 28.7382 32.6139 28.3527 32.2737 27.9937C31.9202 27.6479 31.5405 27.4883 31.0823 27.4883Z" fill="#54565B"/>
<path d="M52.0625 11.9233V25.5082H55.0726V11.2188L52.0625 11.9233Z" fill="#54565B"/>
<path d="M2.31665 49.7011H9.7766V46.8963H2.9841V44.5436H9.00443V41.7255H2.9841V39.1867H9.7766V36.4219H2.31665C1.03405 36.4219 0.000121377 37.472 0.000121377 38.7746V47.3349C-0.0129663 48.651 1.03405 49.7011 2.31665 49.7011Z" fill="#54565B"/>
<path d="M54.5745 49.2093C53.6321 47.8932 52.6768 46.5773 51.7083 45.2747C52.3756 44.9291 52.9384 44.4373 53.3704 43.7859C53.8678 43.0282 54.1294 42.1243 54.1294 41.1007C54.1294 40.4361 54.0117 39.7981 53.7892 39.2265C53.5667 38.6549 53.2525 38.1499 52.8468 37.7378C52.4411 37.3257 51.9569 36.9934 51.381 36.7674C50.8182 36.5414 50.1901 36.4219 49.5226 36.4219H45.2953C44.3398 36.4219 43.5547 37.2194 43.5547 38.1898V49.6878H46.5516V45.6602H48.4363C48.8814 46.3115 49.3262 46.9496 49.7713 47.5742C50.2424 48.2389 50.7398 48.9168 51.2371 49.5681L51.3287 49.6878H54.9279L54.5745 49.2093ZM46.5516 39.2H49.5094C49.8629 39.2 50.1508 39.2665 50.3472 39.386C50.5565 39.519 50.7136 39.6785 50.8314 39.8646C50.9491 40.064 51.0277 40.2766 51.0669 40.4894C51.1062 40.7286 51.1323 40.9279 51.1323 41.0875C51.1323 41.3932 51.08 41.6724 50.9884 41.885C50.8837 42.111 50.7529 42.3104 50.6088 42.4566C50.4518 42.6029 50.2947 42.7091 50.0985 42.7889C49.9022 42.8687 49.719 42.8953 49.5357 42.8953H46.5648V39.2H46.5516Z" fill="#54565B"/>
<path d="M19.9201 37.06V44.5304C19.9201 44.7564 19.8937 45.0222 19.8414 45.3147C19.8021 45.5805 19.6975 45.8596 19.5666 46.1123C19.4357 46.3648 19.2394 46.5641 18.9907 46.7369C18.7552 46.8964 18.4149 46.9762 17.9961 46.9762C17.7474 46.9762 17.538 46.9364 17.368 46.8699C17.1846 46.7901 17.0276 46.6971 16.8968 46.5908C16.7659 46.4844 16.6481 46.3515 16.5434 46.2053C16.4386 46.059 16.3602 45.9128 16.3079 45.7665L16.19 45.4742L13.4678 46.7104L13.5987 46.9894C13.9782 47.8535 14.5671 48.5448 15.3262 49.0366C16.0854 49.5284 16.9884 49.781 18.0224 49.781C18.7552 49.781 19.4227 49.648 20.0247 49.4087C20.6267 49.1562 21.1502 48.7973 21.5821 48.3321C22.014 47.8668 22.3542 47.3085 22.5767 46.6571C22.8124 46.0191 22.9302 45.3014 22.9302 44.5304V36.3555L19.9201 37.06Z" fill="#54565B"/>
<path d="M33.2287 36.755C33.1502 36.5689 32.967 36.4492 32.7706 36.4492C32.5743 36.4492 32.3779 36.5822 32.3126 36.755L25.7949 49.7019H29.0798L30.0353 47.7214H35.5059L36.4744 49.7019H39.7595L33.2287 36.755ZM31.4749 44.9831L32.7706 42.205L34.0532 44.9831H31.4749Z" fill="#54565B"/>
</g>
</g>
<defs>
<clipPath id="clip0_137_3027">
<rect width="130" height="61" fill="white"/>
</clipPath>
</defs>
</svg>
