<svg width="32" height="32" viewBox="0 0 32 32" fill="none" xmlns="http://www.w3.org/2000/svg">
<circle cx="16" cy="16" r="16" fill="#C73434"/>
<path d="M20.3451 19.1186C20.4972 19.2831 20.5798 19.5002 20.5754 19.7242C20.5711 19.9483 20.4802 20.162 20.3217 20.3205C20.1633 20.479 19.9497 20.5701 19.7257 20.5746C19.5016 20.5791 19.2845 20.4967 19.1198 20.3447L15.8121 17.0369L12.5043 20.3447C12.425 20.4304 12.3292 20.4993 12.2227 20.5471C12.1161 20.595 12.001 20.6208 11.8842 20.6231C11.7675 20.6253 11.6514 20.604 11.5431 20.5603C11.4348 20.5167 11.3364 20.4516 11.2538 20.369C11.1713 20.2864 11.1063 20.1879 11.0627 20.0796C11.0191 19.9712 10.9978 19.8552 11.0002 19.7384C11.0025 19.6216 11.0284 19.5066 11.0763 19.4C11.1243 19.2935 11.1932 19.1978 11.279 19.1186L14.5868 15.8108L11.279 12.5047C11.1932 12.4254 11.1243 12.3297 11.0763 12.2232C11.0284 12.1167 11.0025 12.0016 11.0002 11.8848C10.9978 11.7681 11.0191 11.652 11.0627 11.5437C11.1063 11.4353 11.1713 11.3369 11.2538 11.2543C11.3364 11.1716 11.4348 11.1066 11.5431 11.0629C11.6514 11.0192 11.7675 10.9979 11.8842 11.0002C12.001 11.0024 12.1161 11.0283 12.2227 11.0761C12.3292 11.1239 12.425 11.1928 12.5043 11.2786L15.8121 14.5855L19.1198 11.2777C19.2845 11.1257 19.5016 11.0433 19.7257 11.0478C19.9497 11.0523 20.1633 11.1434 20.3217 11.3019C20.4802 11.4604 20.5711 11.6741 20.5754 11.8982C20.5798 12.1222 20.4972 12.3393 20.3451 12.5038L17.0373 15.8108L20.3451 19.1186Z" fill="white" stroke="white"/>
</svg>
