<svg width="507" height="613" viewBox="0 0 507 613" fill="none" xmlns="http://www.w3.org/2000/svg">
<g opacity="0.5">
<mask id="mask0_161_1533" style="mask-type:alpha" maskUnits="userSpaceOnUse" x="0" y="0" width="507" height="447">
<path d="M253.432 0L190.068 37.2313L126.722 74.4392L63.3637 111.671L0 148.884V446.647L63.3637 409.433L126.722 372.208V223.323L190.068 186.11L253.432 148.884L316.79 186.11L380.147 223.323L443.511 186.11L506.869 148.884L443.511 111.671L380.147 74.4392L316.79 37.2313L253.432 0Z" fill="#2E2B28"/>
</mask>
<g mask="url(#mask0_161_1533)">
<rect x="-205.758" y="-40.1484" width="863.183" height="577.128" fill="white" fill-opacity="0.07"/>
</g>
<mask id="mask1_161_1533" style="mask-type:alpha" maskUnits="userSpaceOnUse" x="30" y="225" width="447" height="388">
<path d="M179.009 225.832L216.221 290.242L253.445 354.646L290.656 419.05L327.868 483.431L327.886 483.46H30.1094L67.3212 547.853L104.545 612.257H402.292V612.216L402.321 612.257L439.533 547.853L476.756 483.46H476.733L439.503 419.05L402.309 354.675L402.292 354.646H402.321L365.098 290.242L327.886 225.832H179.009Z" fill="#2E2B28"/>
</mask>
<g mask="url(#mask1_161_1533)">
<rect x="-205.762" y="230.852" width="772.85" height="516.906" fill="white" fill-opacity="0.07"/>
</g>
</g>
</svg>
