<svg width="94" height="78" viewBox="0 0 94 78" fill="none" xmlns="http://www.w3.org/2000/svg">
<path d="M0 76H94" stroke="#262E5C" stroke-width="2.95312" stroke-miterlimit="10"/>
<path d="M13.4238 75.2375V2H79.5738V75.2375" stroke="#262E5C" stroke-width="2.95312" stroke-miterlimit="10"/>
<path d="M13.4238 11.4507H79.5738" stroke="#262E5C" stroke-width="2.95312" stroke-miterlimit="10"/>
<path d="M16.9688 6.7251H19.3312" stroke="#262E5C" stroke-width="2.95312" stroke-miterlimit="10"/>
<path d="M21.6953 6.7251H24.0579" stroke="#262E5C" stroke-width="2.95312" stroke-miterlimit="10"/>
<path d="M26.4189 6.7251H28.7815" stroke="#262E5C" stroke-width="2.95312" stroke-miterlimit="10"/>
<path d="M32.3252 2V11.45" stroke="#262E5C" stroke-width="2.95312" stroke-miterlimit="10"/>
<path d="M35.8691 6.7251H76.0317" stroke="#262E5C" stroke-width="2.95312" stroke-miterlimit="10"/>
<path d="M74.8503 49H18.1504V63.175H74.8503V49Z" stroke="#262E5C" stroke-width="2.95312" stroke-miterlimit="10"/>
<path d="M45.3203 56.0889H47.6829" stroke="#262E5C" stroke-width="2.95312" stroke-miterlimit="10"/>
<path d="M40.5938 56.0889H42.9562" stroke="#262E5C" stroke-width="2.95312" stroke-miterlimit="10"/>
<path d="M50.0439 56.0889H52.4065" stroke="#262E5C" stroke-width="2.95312" stroke-miterlimit="10"/>
<path d="M47 35.0115H47.0144M47 30.5201V26.0288M36.8865 41H57.1134C59.3379 41 60.7239 38.4932 59.603 36.4971L49.4896 18.4855C48.3774 16.5048 45.6226 16.5048 44.5104 18.4855L34.397 36.4971C33.2761 38.4932 34.6621 41 36.8865 41Z" stroke="#A9B0DB" stroke-width="3" stroke-linecap="round" stroke-linejoin="round"/>
<path d="M16.9688 70.5132H76.0312" stroke="#262E5C" stroke-width="2.95312" stroke-miterlimit="10"/>
</svg>
