<svg width="18" height="19" viewBox="0 0 18 19" fill="none" xmlns="http://www.w3.org/2000/svg">
<path d="M9 0.078125C4.02571 0.078125 0 4.10337 0 9.07812C0 14.0523 4.02525 18.0781 9 18.0781C13.9743 18.0781 18 14.0529 18 9.07812C18 4.1039 13.9748 0.078125 9 0.078125ZM9.92422 12.6507C9.92422 12.9351 9.50959 13.2194 9.00018 13.2194C8.46707 13.2194 8.08801 12.9351 8.08801 12.6507V8.13713C8.08801 7.80543 8.4671 7.58029 9.00018 7.58029C9.50959 7.58029 9.92422 7.80543 9.92422 8.13713V12.6507ZM9.00021 6.49048C8.45525 6.49048 8.02881 6.0877 8.02881 5.63749C8.02881 5.18731 8.45529 4.79637 9.00021 4.79637C9.53332 4.79637 9.95984 5.18731 9.95984 5.63749C9.95984 6.0877 9.53329 6.49048 9.00021 6.49048Z" fill="#9ED7E3"/>
</svg>
