<svg width="171" height="48" viewBox="0 0 171 48" fill="none" xmlns="http://www.w3.org/2000/svg">
<path d="M148.684 37.4158C148.286 37.6822 147.842 37.766 147.384 37.7688C146.138 37.777 144.893 37.7756 143.648 37.7688C143.254 37.7674 142.884 37.6713 142.566 37.4144C142.135 37.7001 141.652 37.7715 141.156 37.7715C138.292 37.7743 135.43 37.7715 132.567 37.7715C131.833 37.1713 131.099 36.5711 130.363 35.9682C130.393 35.0246 130.28 34.0756 130.462 33.1458C130.71 32.0553 131.404 31.4262 132.484 31.2188C132.792 31.1598 133.11 31.1296 133.422 31.1282C134.897 31.1186 137.603 31.1241 137.603 31.1241C137.601 32.7241 137.607 34.1346 137.608 36.6975H141.218V31.9852H143.323C143.323 32.2984 143.323 32.9205 143.323 33.2323C143.323 33.2323 143.324 35.0878 143.325 36.0149C143.319 36.5203 143.46 36.7181 143.984 36.7057C145.103 36.7016 146.221 36.7153 147.34 36.7016V31.9825H149.439C149.439 33.382 149.441 34.1058 149.446 36.0121C149.441 36.5395 149.586 36.7181 150.124 36.7057C151.37 36.703 152.616 36.714 153.862 36.7016C153.545 36.2113 153.357 35.6839 153.342 35.1015C153.315 34.4945 153.316 33.2776 153.316 33.2776C153.316 33.0483 153.316 32.422 153.316 32.1899H155.335V29.5762C156.455 29.5556 157.575 29.5625 158.695 29.5748C161.242 29.6147 163.031 31.2394 162.922 33.8558C162.258 34.4478 161.609 35.026 160.954 35.6111C161.297 36.1687 161.741 36.7648 162.465 36.7071C163.317 36.692 164.166 36.7016 165.019 36.7071V27.6836H167.14C167.14 29.1683 167.142 32.1294 167.142 35.6015C167.184 37.1013 166.331 37.788 164.887 37.7688C163.804 37.7756 162.719 37.7605 161.635 37.7756C160.791 37.7976 160.105 37.4501 159.507 36.8843C159.182 37.1768 158.853 37.4721 158.518 37.7715C155.652 37.7715 152.784 37.7715 149.917 37.7715C149.474 37.777 149.039 37.6946 148.681 37.4144L148.684 37.4158ZM135.489 32.205C134.899 32.1734 134.289 32.1912 133.695 32.2146C132.849 32.2462 132.483 33.0112 132.486 33.7803C132.48 34.5838 132.475 35.3872 132.486 36.1893C132.7 36.3637 132.911 36.5368 133.108 36.6989H135.489V32.205ZM158.779 35.9558C158.259 35.0439 157.747 34.1456 157.237 33.2515H155.46C155.45 33.8737 155.456 34.4945 155.46 35.1167C155.456 35.9448 155.852 36.6618 156.746 36.692C157.138 36.7153 157.532 36.6961 157.943 36.6961C158.216 36.4558 158.502 36.2017 158.78 35.9572L158.779 35.9558ZM158.997 32.1899C159.452 32.9768 159.906 33.7624 160.365 34.5549C160.515 34.4258 160.655 34.3036 160.785 34.191C160.791 33.3834 160.85 32.5717 160.471 31.8369C160.149 31.1845 159.652 30.7354 158.91 30.6585C158.436 30.6214 157.937 30.6186 157.466 30.6461V32.1899H158.997Z" fill="#002F56"/>
<path d="M170.999 37.7699H168.896V27.6875H170.999V37.7699Z" fill="#002F56"/>
<path d="M143.883 28.3484V29.7054H142.827V28.9253C142.376 28.8072 142.072 29.031 142.063 29.4774C142.059 29.7329 142.063 29.9883 142.063 30.2479C142.17 30.3468 142.277 30.4457 142.391 30.5487H144.192V31.2533H140.622V30.5487H141.367C141.194 30.3935 141.046 30.2616 140.918 30.1476C140.892 29.3524 140.828 28.5517 141.797 28.3787C142.306 28.3004 143.819 28.3567 143.887 28.3416V28.3484H143.883Z" fill="#002F56"/>
<path d="M135.706 27.4225C136.115 27.8318 136.529 28.2466 136.933 28.6517C136.526 29.0597 136.111 29.4758 135.703 29.8837C135.299 29.4909 134.882 29.0858 134.461 28.6778C134.058 29.083 133.643 29.4992 133.222 29.9208C132.807 29.495 132.405 29.083 131.992 28.66C132.401 28.2411 132.805 27.8263 133.211 27.4102C133.628 27.8291 134.041 28.2438 134.446 28.649C134.874 28.2328 135.293 27.8263 135.706 27.4253V27.4225Z" fill="#002F56"/>
<path d="M145.607 40.1293C146.037 39.7146 146.454 39.3108 146.861 38.918C147.252 39.3094 147.666 39.7242 148.07 40.1293C147.673 40.5276 147.259 40.9424 146.861 41.3393C146.452 40.9438 146.034 40.54 145.607 40.128V40.1293Z" fill="#002F56"/>
<path d="M150.569 40.1337C150.171 40.532 149.757 40.944 149.357 41.3451C148.945 40.9468 148.526 40.5416 148.101 40.1296C148.53 39.7134 148.947 39.3082 149.353 38.9141C149.745 39.3069 150.159 39.7216 150.569 40.1337Z" fill="#002F56"/>
<path d="M105.57 27.6836H107.692V36.703H111.942C111.38 36.1687 111.022 35.5301 110.898 34.7678C110.793 34.1388 110.731 33.5029 110.66 32.8683C111.093 32.2805 111.524 31.694 111.956 31.109C113.035 31.1131 114.103 31.0952 115.179 31.1323C115.904 31.1625 116.606 31.3136 117.24 31.694C118.603 32.4398 118.622 34.1346 117.941 35.3735C117.655 35.9009 117.267 36.3335 116.793 36.7002H121.202V27.6877H123.322C123.322 29.2631 123.325 32.0882 123.325 35.6042C123.366 36.6439 122.901 37.527 121.82 37.7042C116.416 37.8951 110.986 37.7152 105.573 37.7756C105.573 33.6993 105.57 29.0735 105.57 27.685V27.6836ZM112.71 32.1857C112.747 32.6678 112.806 33.1444 112.864 33.6237C112.92 34.0509 112.966 34.4821 113.061 34.901C113.235 35.688 113.726 36.5382 114.574 36.7208C115.668 36.0506 116.335 34.8063 116.248 33.5193C116.221 33.1018 116.062 32.7406 115.722 32.4783C115.428 32.253 115.089 32.1802 114.729 32.1802C114.055 32.1857 113.385 32.1706 112.711 32.1857H112.71Z" fill="#002F56"/>
<path d="M98.5771 37.7754C98.2068 37.4018 97.8324 37.0241 97.4539 36.6409C97.0438 37.2755 96.402 37.6408 95.6656 37.7287C92.9378 37.8496 90.1977 37.7397 87.4658 37.7754C86.7307 37.1738 85.997 36.5736 85.251 35.9624C85.2633 35.1823 85.2537 34.3967 85.2935 33.6139C85.3223 33.0439 85.5019 32.5096 85.8736 32.0578C86.4647 31.323 87.4206 31.1458 88.3134 31.1307C89.7904 31.1211 92.5044 31.1266 92.5044 31.1266C92.5044 32.6387 92.5072 34.1674 92.5085 36.7096C92.9831 36.7096 93.4535 36.7096 93.9266 36.7096C94.5095 36.6959 95.1938 36.8428 95.464 36.1822C95.5723 35.9336 95.6477 35.6672 95.7012 35.4007C95.8631 34.6027 95.9906 33.7993 96.162 33.0041C96.2731 32.4876 96.52 32.033 96.9437 31.6965C97.5321 31.2254 98.3042 31.176 99.0269 31.1568C100.605 31.1499 103.564 31.154 103.564 31.154C103.553 32.5824 103.587 33.3941 103.555 35.229C103.536 35.8718 103.35 36.4651 102.892 36.9417C101.81 38.0542 99.9979 37.7218 98.5785 37.7754H98.5771ZM101.443 32.2363C100.726 32.2363 100.021 32.2226 99.3177 32.2404C98.4866 32.2583 98.3028 32.8777 98.1917 33.5905C98.0806 34.1756 97.9737 34.7621 97.8749 35.3018C98.344 35.788 98.7924 36.2509 99.2189 36.6931C100.012 36.6986 100.976 36.8414 101.297 35.9322C101.376 35.718 101.432 35.4817 101.437 35.2537C101.449 34.2484 101.457 33.2403 101.443 32.2363ZM90.3828 36.7041V32.1772C89.7616 32.191 89.1458 32.1841 88.5355 32.2267C87.8649 32.2473 87.4439 32.8722 87.4068 33.5026C87.389 34.3953 87.3986 35.2895 87.3986 36.2042C87.592 36.3621 87.8059 36.5379 88.0089 36.7041H90.3828Z" fill="#002F56"/>
<path d="M125.078 27.6797H127.183C127.183 29.391 127.187 33.525 127.187 37.7635H125.079V27.6797H125.078Z" fill="#002F56"/>
<path d="M88.113 27.4037C88.5299 27.8254 88.9413 28.2415 89.3459 28.6494C89.7737 28.2333 90.1934 27.8267 90.6089 27.4216C91.0163 27.8295 91.4291 28.2443 91.8364 28.6522C91.4263 29.0628 91.0108 29.479 90.6035 29.8869C90.1948 29.4886 89.7779 29.0834 89.3555 28.6714C88.9509 29.0779 88.5354 29.4941 88.1157 29.9144C87.7043 29.4927 87.3011 29.0793 86.8896 28.6577C87.2983 28.2388 87.7029 27.824 88.113 27.4023V27.4037Z" fill="#002F56"/>
<path d="M63.64 31.109C64.7124 31.1131 65.7794 31.1007 66.8505 31.1323C67.5801 31.1557 68.285 31.3122 68.9227 31.6927C70.2941 32.4426 70.3051 34.1511 69.6139 35.3913C69.33 35.9105 68.9446 36.3363 68.4756 36.6975H72.8834V27.685H75.0049C75.0049 28.005 75.0049 28.6368 75.0049 28.954C75.0049 28.954 75.0049 33.3257 75.0091 35.5122C75.0228 35.9215 74.9583 36.3143 74.8404 36.7016H78.2442V27.6836H80.3576C80.3727 29.6806 80.3507 31.9179 80.3645 35.6083C80.3645 35.9105 80.3453 36.2085 80.2575 36.4997C80.0463 37.1947 79.554 37.5696 78.8641 37.7028C68.3727 37.902 57.8553 37.7097 47.3543 37.7743C47.3543 33.6938 47.3516 29.0845 47.3516 27.6836H49.4704V36.7016H53.7986C53.2939 36.1852 52.7824 35.6605 52.2667 35.1304C52.2832 34.4972 52.2187 33.8572 52.3682 33.2268C52.6178 32.1679 53.3022 31.5608 54.3486 31.3562C54.6736 31.293 55.011 31.2642 55.3415 31.2614C56.7746 31.2518 59.4187 31.2573 59.4187 31.2573C59.4173 32.6554 59.4215 33.4259 59.4256 35.2526C59.4256 35.7361 59.4448 36.2223 59.2555 36.6975H63.6208C63.0612 36.1646 62.7046 35.5273 62.5826 34.7678C62.4756 34.1388 62.4166 33.5029 62.344 32.8683C62.7773 32.2805 63.208 31.6954 63.64 31.109ZM66.2566 36.7222C67.3497 36.0561 68.0175 34.809 67.9325 33.5248C67.9051 33.0977 67.7419 32.731 67.3908 32.4687C67.1028 32.253 66.7695 32.183 66.4157 32.183C65.7396 32.1899 65.0649 32.1706 64.3901 32.1898C64.4793 32.9961 64.5574 33.7913 64.6754 34.592C64.8166 35.4834 65.2966 36.5052 66.2566 36.7222ZM54.4007 35.515C54.8052 35.9201 55.1947 36.3102 55.5828 36.7002C55.9847 36.7002 56.3934 36.7085 56.8007 36.6975C57.0462 36.6906 57.2011 36.5382 57.2615 36.3047C57.293 36.1797 57.3067 36.0451 57.3081 35.916C57.3081 34.717 57.3191 33.5166 57.304 32.3176C56.7582 32.2984 56.211 32.308 55.6651 32.3244C55.0068 32.3519 54.5666 32.7337 54.4596 33.3861C54.3691 34.0783 54.4075 34.831 54.4007 35.5177V35.515Z" fill="#002F56"/>
<path d="M41.1616 40.5217C41.0478 40.2607 40.9381 40.008 40.8174 39.7305C42.267 39.8857 43.2078 38.6277 43.1995 37.2748C43.2105 35.1858 43.2037 33.2273 43.205 31.1328H45.317C45.3143 33.0446 45.3349 35.1982 45.317 37.1801C45.3664 39.5616 43.3888 40.8417 41.1616 40.5203V40.5217Z" fill="#002F56"/>
<path d="M56.5243 28.6186C56.1074 29.0238 55.6918 29.4276 55.2859 29.8231C54.8772 29.4276 54.4616 29.0251 54.042 28.62C54.4712 28.2052 54.8909 27.8 55.3298 27.3756C55.7 27.7602 56.1046 28.1805 56.501 28.5911C56.9371 28.1667 57.3471 27.7671 57.764 27.3633C58.1645 27.7781 58.5732 28.2011 58.9668 28.6104C58.5841 29.0059 58.1768 29.4276 57.7791 29.8382C57.3526 29.4248 56.9343 29.0183 56.5229 28.62L56.5243 28.6186Z" fill="#002F56"/>
<path d="M44.3197 47.4453L43.2774 45.8837H41.9732V47.4453H41.0996V42.7344H43.1554C44.5871 42.7344 45.1851 43.2123 45.1851 44.2685C45.1851 45.0486 44.8696 45.5334 44.2045 45.7491L45.3469 47.4453H44.3183H44.3197ZM41.9746 45.131H43.2047C43.9769 45.131 44.2799 44.9017 44.2799 44.3166C44.2799 43.7315 43.9769 43.5021 43.2047 43.5021H41.9746V45.131Z" fill="#002F56"/>
<path d="M49.8566 43.5184H47.0617V44.6899H49.6482V45.4371H47.0617V46.6691H49.9115V47.4492H46.1895V42.7383H49.858V43.5184H49.8566Z" fill="#002F56"/>
<path d="M54.196 46.4122H51.9044L51.4806 47.4492H50.4932L52.4749 42.7383H53.6241L55.6127 47.4492H54.6184L54.1946 46.4122H54.196ZM53.8943 45.6857L53.0481 43.62L52.202 45.6857H53.8957H53.8943Z" fill="#002F56"/>
<path d="M57.3394 46.6583H59.8258V47.4453H56.4658V42.7344H57.3394V46.6583Z" fill="#002F56"/>
<path d="M66.0256 43.5184H63.2306V44.6899H65.8171V45.4371H63.2306V46.6691H66.0804V47.4492H62.3584V42.7383H66.027V43.5184H66.0256Z" fill="#002F56"/>
<path d="M70.2986 43.8729C69.7939 43.6037 69.1768 43.4293 68.6995 43.4293C68.1962 43.4293 67.8534 43.6175 67.8534 44.0007C67.8534 44.2493 67.9878 44.3578 68.7338 44.5597C69.7679 44.8467 70.8143 45.0362 70.7964 46.0608C70.8197 47.9273 67.8479 47.7447 66.7041 46.889L67.1073 46.2298C67.7601 46.6583 69.8241 47.2049 69.8762 46.1089C69.8762 45.7861 69.6952 45.6914 69.0232 45.5238C67.9356 45.2505 66.8906 45.0651 66.9071 44.0638C66.9427 42.2646 69.6019 42.4926 70.684 43.1752L70.3013 43.8757L70.2986 43.8729Z" fill="#002F56"/>
<path d="M75.2358 43.5021H73.73V47.4453H72.8564V43.5021H71.3506V42.7344H75.2345V43.5021H75.2358Z" fill="#002F56"/>
<path d="M78.905 46.4122H76.6133L76.1896 47.4492H75.2021L77.1839 42.7383H78.3331L80.3217 47.4492H79.3274L78.9036 46.4122H78.905ZM78.6019 45.6857L77.7557 43.62L76.9096 45.6857H78.6033H78.6019Z" fill="#002F56"/>
<path d="M84.185 43.5021H82.6792V47.4453H81.8056V43.5021H80.2998V42.7344H84.1837V43.5021H84.185Z" fill="#002F56"/>
<path d="M88.693 43.5184H85.898V44.6899H88.4845V45.4371H85.898V46.6691H88.7478V47.4492H85.0244V42.7383H88.693V43.5184Z" fill="#002F56"/>
<path d="M94.9455 43.9284C93.921 42.989 92.1039 43.5892 92.1094 45.0931C92.1245 46.5737 93.7853 47.1244 94.8783 46.3443V45.5436H93.7427V44.8377H95.7052V46.7962C95.1676 47.2535 94.449 47.5159 93.6961 47.5159C92.3453 47.5433 91.1562 46.3993 91.1891 45.0931C91.1617 42.8626 93.9923 41.9328 95.516 43.3365L94.9455 43.9284Z" fill="#002F56"/>
<path d="M100.589 43.5184H97.7945V44.6899H100.381V45.4371H97.7945V46.6691H100.644V47.4492H96.9209V42.7383H100.589V43.5184Z" fill="#002F56"/>
<path d="M105.85 42.7383V47.4492H104.93L102.444 44.0637V47.4492H101.584V42.7383H102.504L104.997 46.1238V42.7383H105.85Z" fill="#002F56"/>
<path d="M110.78 43.5184H107.985V44.6899H110.571V45.4371H107.985V46.6691H110.835V47.4492H107.111V42.7383H110.78V43.5184Z" fill="#002F56"/>
<path d="M114.992 47.4453L113.951 45.8837H112.647V47.4453H111.773V42.7344H113.829C115.261 42.7344 115.859 43.2123 115.859 44.2685C115.859 45.0486 115.543 45.5334 114.878 45.7491L116.021 47.4453H114.992ZM112.647 45.131H113.877C114.651 45.131 114.952 44.9017 114.952 44.3166C114.952 43.7315 114.651 43.5021 113.877 43.5021H112.647V45.131Z" fill="#002F56"/>
<path d="M120.253 46.4122H117.961L117.537 47.4492H116.55L118.532 42.7383H119.681L121.669 47.4492H120.675L120.251 46.4122H120.253ZM119.95 45.6857L119.103 43.62L118.257 45.6857H119.951H119.95Z" fill="#002F56"/>
<path d="M123.396 46.6583H125.882V47.4453H122.522V42.7344H123.396V46.6583Z" fill="#002F56"/>
<path d="M131.707 46.4122H129.415L128.991 47.4492H128.004L129.986 42.7383H131.135L133.123 47.4492H132.129L131.705 46.4122H131.707ZM131.404 45.6857L130.557 43.62L129.711 45.6857H131.405H131.404Z" fill="#002F56"/>
<path d="M137.989 45.3192C137.989 46.7256 137.236 47.5126 135.892 47.5126C134.548 47.5126 133.788 46.7187 133.788 45.3192V42.7344H134.662V45.3192C134.662 46.2078 135.112 46.705 135.892 46.705C136.672 46.705 137.115 46.2064 137.115 45.3192V42.7344H137.989V45.3192Z" fill="#002F56"/>
<path d="M142.724 43.5021H141.218V47.4453H140.345V43.5021H138.839V42.7344H142.723V43.5021H142.724Z" fill="#002F56"/>
<path d="M147.829 47.4453H146.955V45.4661H144.436V47.4453H143.562V42.7344H144.436V44.6792H146.955V42.7344H147.829V47.4453Z" fill="#002F56"/>
<path d="M151.424 47.514C150.073 47.5414 148.884 46.3973 148.917 45.0912C148.882 43.7851 150.073 42.641 151.424 42.6685C152.768 42.641 153.943 43.7851 153.917 45.0912C153.944 46.3973 152.768 47.54 151.424 47.514ZM151.424 46.694C152.311 46.694 153.002 45.9743 153.002 45.0926C152.932 42.9651 149.906 42.972 149.837 45.0926C149.837 45.9743 150.53 46.694 151.422 46.694H151.424Z" fill="#002F56"/>
<path d="M158.223 47.4453L157.182 45.8837H155.878V47.4453H155.004V42.7344H157.06C158.491 42.7344 159.089 43.2123 159.089 44.2685C159.089 45.0486 158.774 45.5334 158.109 45.7491L159.251 47.4453H158.223ZM155.878 45.131H157.108C157.881 45.131 158.183 44.9017 158.183 44.3166C158.183 43.7315 157.881 43.5021 157.108 43.5021H155.878V45.131Z" fill="#002F56"/>
<path d="M160.962 47.4453H160.089V42.7344H160.962V47.4453Z" fill="#002F56"/>
<path d="M165.7 43.5021H164.194V47.4453H163.32V43.5021H161.814V42.7344H165.698V43.5021H165.7Z" fill="#002F56"/>
<path d="M171 42.7383L169.051 45.7805V47.4492H168.17V45.7873L166.222 42.7383H167.269L168.613 44.8644L169.964 42.7383H171Z" fill="#002F56"/>
<path d="M71.629 14.7022V11.4911H64.4976V5.93144H74.3526V3.01562H60.4766V23.6886H76.477V20.7742H64.4976V14.7022H71.629Z" fill="#002F56"/>
<path d="M106.804 23.6635H111.102V3.02344H101.285C98.7879 8.15736 93.7562 18.5708 91.3096 23.6882H95.6762L100.32 14.1112L106.804 23.6621V23.6635ZM104.275 5.90904H107.167V17.8497L102.223 10.5004L104.275 5.90904Z" fill="#002F56"/>
<path d="M80.2043 3.47875C75.8761 5.01563 73.6941 9.02882 73.7531 13.5557C73.6955 17.871 75.9789 21.5738 80.0713 23.0146C81.4262 23.5145 82.9951 23.7686 84.7327 23.7686C86.0603 23.7645 89.5615 23.7191 91.3142 23.693V11.2167H83.8372V14.4443H87.8486V20.4517C87.0888 20.7237 87.1643 20.7347 85.8669 20.7154C81.1026 20.8596 77.6507 18.099 77.7728 13.053C77.7481 10.8885 78.5654 8.83791 79.9177 7.5098C82.4685 5.06782 86.9407 5.20928 90.0635 6.45225L90.5489 3.74657C88.0488 2.46515 83.0623 2.33055 80.2057 3.47875H80.2043Z" fill="#002F56"/>
<path d="M49.7403 16.2446L55.6292 23.6886H60.4771L54.3318 16.2473L57.9578 12.2094V7.59468C57.9578 5.07029 55.9062 3.01562 53.3855 3.01562H42.3936V23.6886H46.4132V16.1416H49.658L49.7375 16.2432L49.7403 16.2446ZM46.2953 12.9168L46.3679 5.91358H51.2337C53.0742 5.91358 54.4059 7.33372 54.4059 8.29101L54.3332 10.8745L52.5229 12.9168H46.2953Z" fill="#002F56"/>
<path d="M2.10547 31.0547L18.6832 47.6568V41.0396L8.65402 31.0547H2.10547Z" fill="#005257"/>
<path d="M20.333 41.0396V47.6568L36.9108 31.0547H30.3636L20.333 41.0396Z" fill="#005257"/>
<path d="M18.6829 13.5792V13.229V8.98093V8.96994V6.6708L12.0205 0.0398296V0.0535641L5.47335 0L7.82945 2.36094L9.73299 4.26591L11.1236 5.66407L13.0258 7.56491L14.4219 8.96307L14.4301 8.96994H4.65872L4.6697 8.98093L0 13.5792H18.6829Z" fill="#75CEC8"/>
<path d="M7.83071 25.9969L9.73425 24.0906L11.129 22.6979L13.027 20.793L14.4231 19.3948L16.3267 17.4899L18.6828 15.1289H12.1342L5.51301 21.7997H5.5281L5.47461 28.3579L7.83071 25.9969Z" fill="#00A688"/>
<path d="M34.3476 8.98093L34.3572 8.96994H24.9986L24.5858 8.97131L24.594 8.96307L25.9901 7.56491L27.8923 5.66407L29.2829 4.26591L31.1865 2.36094L33.5426 0L26.9954 0.0535641V0.0398296L20.333 6.6708V8.98093V13.229V13.5792H39.0173L34.3476 8.98093Z" fill="#75CEC8"/>
<path d="M24.5009 19.3948L25.8956 20.793L27.7936 22.6979L29.1897 24.0906L31.0933 25.9969L33.4494 28.3579L33.3959 21.7997H33.411L26.7884 15.1289H20.2412L22.5973 17.4899L24.5009 19.3948Z" fill="#00A488"/>
<path d="M21.7672 19.4141H17.2264L14.5645 22.1348H24.4524L21.7672 19.4141Z" fill="#00848D"/>
<path d="M21.7672 23.7422H17.2264L14.5645 26.463H24.4524L21.7672 23.7422Z" fill="#00848D"/>
<path d="M21.7672 28.043H17.2264L14.5645 30.7651H24.4524L21.7672 28.043Z" fill="#00848D"/>
<path d="M14.5645 35.0763H24.4524L21.7672 32.3555H17.2264L14.5645 35.0763Z" fill="#00848D"/>
</svg>
