<svg width="127" height="44" viewBox="0 0 127 44" fill="none" xmlns="http://www.w3.org/2000/svg">
<g clip-path="url(#clip0_35_795)">
<path d="M127 0H0V44H127V0Z" fill="white"/>
<path d="M18.5097 0L13.8819 2.68497L9.25528 5.36826L4.62785 8.05323L0 10.7369V32.2104L4.62785 29.5267L9.25528 26.8421V16.1052L13.8819 13.4215L18.5097 10.7369L23.1372 13.4215L27.7646 16.1052L32.3924 13.4215L37.0199 10.7369L32.3924 8.05323L27.7646 5.36826L23.1372 2.68497L18.5097 0Z" fill="#2E2B28"/>
<path d="M23.7041 34.702H23.7056L23.7047 34.7004L23.7041 34.702Z" fill="#2E2B28"/>
<path d="M29.0479 25.4038L29.0488 25.4053L29.0494 25.4038H29.0479Z" fill="#2E2B28"/>
<path d="M13.0196 16.1052L15.6907 20.7548L18.3627 25.4039L21.0339 30.0531L23.7051 34.7005L23.7064 34.7026H2.33105L5.00223 39.3509L7.67425 44H29.0475V43.9971L29.0496 44L31.7207 39.3509L34.3928 34.7026H34.3911L31.7186 30.0531L29.0487 25.406L29.0475 25.4039H29.0496L26.3775 20.7548L23.7064 16.1052H13.0196Z" fill="#2E2B28"/>
<mask id="mask0_35_795" style="mask-type:luminance" maskUnits="userSpaceOnUse" x="0" y="0" width="127" height="44">
<path d="M127 0H0V44H127V0Z" fill="white"/>
</mask>
<g mask="url(#mask0_35_795)">
<path d="M46.799 28.4029C48.6471 29.9813 50.8458 30.7811 53.3953 30.8025C56.4115 30.7586 57.9404 29.6402 57.9819 27.4475C58.0038 25.6516 56.9953 24.5718 54.9564 24.2083C54.0223 24.0758 52.9983 23.927 51.8846 23.7618C49.889 23.4202 48.371 22.6545 47.3308 21.4645C46.2584 20.2416 45.7223 18.7542 45.7226 17.0023C45.7226 14.8977 46.3958 13.2009 47.7424 11.9118C49.0465 10.6339 50.8969 9.98381 53.2934 9.96155C56.1775 10.0275 58.6853 10.8565 60.8168 12.4487L58.8576 15.4461C57.1158 14.2553 55.1989 13.6376 53.107 13.5931C52.0239 13.5931 51.1213 13.8739 50.3992 14.4357C49.6455 15.0199 49.2579 15.8904 49.2366 17.0471C49.2366 17.7412 49.4966 18.3693 50.0167 18.9313C50.5368 19.504 51.3701 19.9006 52.5167 20.121C53.1537 20.2315 54.0242 20.3583 55.1281 20.5015C57.3044 20.8101 58.9127 21.62 59.9529 22.9311C60.983 24.2205 61.4979 25.7189 61.4976 27.4263C61.3812 32.0322 58.6662 34.3681 53.3528 34.4341C49.9169 34.4341 46.9633 33.3387 44.4922 31.1479L46.799 28.4029Z" fill="#2E2B28"/>
<path d="M65.8242 10.1598H74.24C75.1284 10.1575 76.0146 10.246 76.8851 10.4241C77.7351 10.6552 78.5956 11.1284 79.4667 11.8437C80.198 12.3832 80.7917 13.1537 81.2479 14.1554C81.7248 15.1244 81.9632 16.2692 81.9632 17.5899C81.9632 19.3731 81.3576 20.9967 80.1462 22.4606C78.9032 24.0017 77.0863 24.7942 74.6953 24.8382H69.3382V34.2354H65.8242V10.1598ZM69.3382 21.4054H74.556C75.8639 21.3834 76.8475 20.963 77.507 20.1443C78.1343 19.348 78.4481 18.4633 78.4484 17.4901C78.4484 16.6829 78.3207 16.0027 78.0654 15.4495C77.8078 14.9613 77.4215 14.5538 76.9487 14.2716C76.2252 13.7965 75.3851 13.5699 74.4285 13.5918H69.3382V21.4054Z" fill="#2E2B28"/>
<path d="M85.7764 10.1599H89.2904V30.8026H100.604V34.2359H85.7764V10.1599Z" fill="#2E2B28"/>
<path d="M108.011 10.1599H104.497V34.2355H108.011V10.1599Z" fill="#2E2B28"/>
<path d="M117.119 13.3949H110.758V10.1599H126.999V13.3949H120.633V34.2359H117.119V13.3949Z" fill="#2E2B28"/>
</g>
</g>
<defs>
<clipPath id="clip0_35_795">
<rect width="127" height="44" fill="white"/>
</clipPath>
</defs>
</svg>
