<svg width="20" height="21" viewBox="0 0 20 21" fill="none" xmlns="http://www.w3.org/2000/svg">
<path fill-rule="evenodd" clip-rule="evenodd" d="M9.99951 2.8916C5.58128 2.8916 1.99951 6.47337 1.99951 10.8916C1.99951 15.3098 5.58128 18.8916 9.99951 18.8916C14.4177 18.8916 17.9995 15.3098 17.9995 10.8916C17.9995 6.47337 14.4177 2.8916 9.99951 2.8916ZM9.99356 6.61253C9.67575 6.61234 9.36101 6.67474 9.06732 6.79618C8.77362 6.91762 8.50672 7.09572 8.28186 7.32031C8.05699 7.5449 7.87857 7.81158 7.75676 8.10512C7.63496 8.39866 7.57217 8.71333 7.57198 9.03114C7.57217 9.34895 7.63496 9.66361 7.75676 9.95715C7.87857 10.2507 8.05699 10.5174 8.28186 10.742C8.50672 10.9666 8.77362 11.1447 9.06732 11.2661C9.36101 11.3875 9.67575 11.4499 9.99356 11.4497C10.6353 11.4499 11.2508 11.1953 11.7048 10.7417C12.1588 10.2881 12.414 9.67286 12.4144 9.03114C12.414 8.38942 12.1588 7.77413 11.7048 7.32057C11.2508 6.86702 10.6353 6.61233 9.99356 6.61253ZM13.751 14.2256C11.7662 12.0823 8.19486 12.1932 6.25179 14.2226L6.11188 14.3617C6.05838 14.4153 6.01631 14.4791 5.98826 14.5494C5.96021 14.6197 5.94674 14.695 5.94869 14.7707C5.95064 14.8463 5.96796 14.9208 5.9996 14.9896C6.03123 15.0584 6.07653 15.12 6.13272 15.1707C7.15523 16.095 8.51188 16.659 9.99951 16.659C11.4871 16.659 12.8438 16.095 13.867 15.1707C13.9232 15.1199 13.9684 15.0583 14 14.9895C14.0316 14.9207 14.0488 14.8462 14.0507 14.7705C14.0526 14.6949 14.039 14.6196 14.0109 14.5493C13.9828 14.479 13.9407 14.4152 13.8871 14.3617L13.751 14.2256Z" fill="white"/>
</svg>
