<svg width="30" height="45" viewBox="0 0 30 45" fill="none" xmlns="http://www.w3.org/2000/svg">
<path d="M27.0427 4.59007V7.65678C27.0427 14.6894 20.9798 19.0556 17.4996 20.982C17.0795 21.2146 16.8203 21.6582 16.8203 22.1384C16.8203 22.6187 17.0795 23.0623 17.4996 23.2949C20.9798 25.2213 27.0427 29.5875 27.0427 36.6201V39.6868M27.8946 4.59007H2.33868C1.8682 4.59007 1.48682 4.20869 1.48682 3.73821V2.03448C1.48682 1.564 1.8682 1.18262 2.33868 1.18262H27.8946C28.3651 1.18262 28.7464 1.564 28.7464 2.03448V3.73821C28.7464 4.20869 28.3651 4.59007 27.8946 4.59007ZM27.8946 43.0943H2.33868C1.8682 43.0943 1.48682 42.7129 1.48682 42.2424V40.5387C1.48682 40.0682 1.8682 39.6868 2.33868 39.6868H27.8946C28.3651 39.6868 28.7464 40.0682 28.7464 40.5387V42.2424C28.7464 42.7129 28.3651 43.0943 27.8946 43.0943Z" stroke="#262E5C" stroke-width="2" stroke-miterlimit="10" stroke-linejoin="round"/>
<path d="M9.64069 25.3009C10.745 24.4639 11.8269 23.7965 12.7335 23.2946C13.1537 23.0621 13.4128 22.6185 13.4128 22.1382C13.4128 21.6579 13.1537 21.2144 12.7335 20.9818C9.25343 19.0553 3.19055 14.6892 3.19055 7.65655V4.58984M3.19055 39.6866V36.6199C3.19055 34.1977 3.90978 32.0918 4.99497 30.293" stroke="#262E5C" stroke-width="2" stroke-miterlimit="10" stroke-linecap="round" stroke-linejoin="round"/>
<path d="M6.59802 39.6871C6.96211 39.2281 9.96791 35.5708 15.1167 35.5708C15.7026 35.5708 20.4358 35.6531 23.6353 39.6871" stroke="#262E5C" stroke-width="2" stroke-miterlimit="10" stroke-linejoin="round"/>
<path d="M15.1166 26.8997V26.0479M15.1166 31.661V30.8092" stroke="#262E5C" stroke-width="2" stroke-miterlimit="10" stroke-linecap="round" stroke-linejoin="round"/>
<path d="M25.5978 13.3488C23.9384 12.9126 22.2297 12.6916 20.5139 12.6914C18.2795 12.6914 16.425 13.0662 15.1037 13.4376C11.724 14.3882 8.15346 14.4315 4.75171 13.563M12.7335 20.9822C13.1214 21.1964 13.9867 21.6062 15.1556 21.597C16.2801 21.588 17.1127 21.1959 17.4996 20.9822" stroke="#262E5C" stroke-width="2" stroke-miterlimit="10" stroke-linejoin="round"/>
</svg>
