<svg width="18" height="14" viewBox="0 0 18 14" fill="none" xmlns="http://www.w3.org/2000/svg">
<path d="M15.0783 9.76L15.0898 9.77148L15.2666 9.5947C15.3829 9.7401 15.412 9.94365 15.2957 10.0891C15.1793 10.2344 15.0049 10.2926 14.8304 10.2344C14.7432 10.2054 14.6559 10.1181 14.5978 10.06C14.147 9.62378 13.6963 9.18033 13.2456 8.73687C12.7949 8.29341 12.3441 7.84996 11.8934 7.41377L15.0783 9.76ZM15.0783 9.76L14.9735 9.65516C14.5236 9.20527 14.0736 8.76253 13.6228 8.31895L13.6223 8.31846C13.1718 7.87529 12.7205 7.43128 12.2691 6.97988L12.1819 6.89265L12.0051 6.71587L12.1819 6.53909C12.3689 6.35208 12.5562 6.18856 12.7564 6.01372C12.7817 5.99169 12.8071 5.96948 12.8328 5.94703C13.0119 5.78678 13.1924 5.62794 13.3731 5.46893C13.7553 5.1326 14.1384 4.79554 14.5106 4.44299L14.5373 4.41631L14.5955 4.35815L14.5985 4.35508C14.6525 4.30109 14.7194 4.23423 14.8155 4.16716L14.9735 4.0092L14.9792 4.0035L14.9793 4.0036L15.4411 3.57063C15.4948 3.51549 15.5158 3.44449 15.4987 3.37717L15.4431 3.26596C15.382 3.22262 15.2948 3.21148 15.2241 3.23767C15.1992 3.25572 15.1775 3.26694 15.1655 3.2729L14.7964 3.61362L14.7941 3.61576L14.7941 3.61575C14.2124 4.13924 13.6381 4.65545 13.0637 5.1716C12.4894 5.68776 11.9152 6.20386 11.3337 6.72722L11.3325 6.72825L10.5474 7.42614L10.544 7.42914L10.544 7.42911C10.0914 7.81703 9.5393 8.01272 8.98549 8.01272C8.43535 8.01272 7.91078 7.8484 7.42596 7.42821L7.42359 7.42616L7.4236 7.42614L6.63846 6.72825L6.63731 6.72722C6.05593 6.20398 5.48181 5.688 4.90762 5.17195L4.90723 5.1716C4.33293 4.65545 3.75855 4.13924 3.17689 3.61575L3.17455 3.61364L3.17456 3.61362L2.80544 3.2729C2.79098 3.26569 2.76215 3.25076 2.73069 3.2253C2.68066 3.19996 2.58571 3.20426 2.50314 3.28683C2.49647 3.2935 2.492 3.29874 2.48912 3.30245V3.33267L2.47124 3.37737C2.46698 3.38804 2.46161 3.41839 2.47376 3.46496C2.48526 3.50904 2.50746 3.54727 2.53008 3.57084L2.99169 4.0036L2.99758 4.00911L2.99748 4.0092L3.17196 4.18368C3.22984 4.24156 3.27276 4.28381 3.33741 4.32692L3.35801 4.34065L3.37551 4.35815L3.43367 4.41631L3.26531 4.58467L3.43367 4.41631L3.46035 4.443C3.8326 4.79554 4.21565 5.1326 4.59787 5.46893C4.77827 5.62767 4.95849 5.78625 5.1373 5.94622C5.2429 6.03682 5.34766 6.13416 5.45189 6.2312L5.46229 6.24088C5.56484 6.33637 5.66774 6.43218 5.77693 6.52772L5.97804 6.70369L5.78908 6.89264L5.70185 6.97988C5.25042 7.43131 4.79911 7.87534 4.34863 8.31855L4.34822 8.31895C3.89738 8.76253 3.44737 9.20527 2.99748 9.65516L2.89334 9.75931C2.85736 9.8114 2.85315 9.88709 2.88241 9.94701C2.91548 9.98445 2.94777 10.0054 2.97157 10.014C2.9922 10.0215 3.00769 10.0214 3.02877 10.0108L3.04467 10.0029L3.06152 9.99727C3.10413 9.98307 3.14231 9.95563 3.1652 9.9213L3.18008 9.89898L3.19936 9.88032C3.64922 9.44497 4.0992 9.00224 4.55006 8.55866L4.55048 8.55825C5.00045 8.11553 5.45129 7.67197 5.90225 7.23553L6.04619 7.0916L6.21288 6.92491L6.38906 7.08152C6.64995 7.31342 6.88189 7.51637 7.11457 7.71997L7.12103 7.72562L7.12093 7.72573C7.54306 8.12147 8.06874 8.35931 8.64901 8.41425C8.71845 8.41517 8.78495 8.4235 8.83667 8.42997L8.84202 8.43064C8.90287 8.43825 8.94552 8.44325 8.98549 8.44325C9.10645 8.44325 9.19211 8.44206 9.27381 8.42164L9.29256 8.41695L9.31181 8.4152C9.88512 8.36308 10.3907 8.10272 10.8592 7.71749C10.929 7.65632 11.0033 7.58826 11.0809 7.5171C11.2408 7.37042 11.4151 7.2106 11.5945 7.07103L11.7687 6.93554L11.9248 7.09159C11.937 7.1038 11.9448 7.11019 11.9579 7.1209C11.9667 7.12807 11.9779 7.13718 11.9943 7.15126C12.0197 7.17306 12.0576 7.20727 12.0908 7.25689C12.5344 7.68642 12.9778 8.12272 13.4205 8.5582L13.4209 8.55866C13.8718 9.00224 14.3218 9.44497 14.7716 9.88032L14.7746 9.88317L14.7745 9.88319C14.8046 9.91326 14.8326 9.94097 14.8615 9.96462C14.8754 9.97604 14.8872 9.98448 14.8967 9.99034C14.9054 9.99571 14.9097 9.99733 14.9096 9.99734C14.9096 9.99734 14.9096 9.99732 14.9095 9.99728C14.9766 10.0197 15.0442 10.0032 15.1004 9.93288C15.1142 9.91566 15.1218 9.89364 15.1192 9.86264C15.1167 9.83192 15.1037 9.79489 15.0783 9.76Z" fill="#75CEC8" stroke="#75CEC8" stroke-width="0.5"/>
<path d="M15.3247 13.0101H2.6462C1.33032 13.0101 0.25 11.9298 0.25 10.6139V2.6462C0.25 1.33032 1.33032 0.25 2.6462 0.25H15.3538C16.6697 0.25 17.75 1.33032 17.75 2.6462V10.6113C17.7223 11.9328 16.6662 13.0101 15.3247 13.0101ZM2.6462 0.738692C1.57475 0.738692 0.738691 1.60954 0.738691 2.6462V10.6139C0.738691 11.6853 1.60954 12.5214 2.6462 12.5214H15.3538C16.4252 12.5214 17.2613 11.6506 17.2613 10.6139V2.6462C17.2613 1.57475 16.3905 0.738692 15.3538 0.738692H2.6462Z" fill="#75CEC8" stroke="#75CEC8" stroke-width="0.5"/>
</svg>
