<svg width="15" height="17" viewBox="0 0 15 17" fill="none" xmlns="http://www.w3.org/2000/svg">
<path d="M12.5839 2.10594C11.2259 0.7479 9.42024 0 7.49971 0C5.57917 0 3.77352 0.7479 2.41551 2.10594C1.05747 3.46402 0.30957 5.2696 0.30957 7.1901C0.30957 11.0753 3.9831 14.3068 5.95666 16.0428C6.23092 16.2841 6.46775 16.4924 6.65645 16.6687C6.89285 16.8895 7.1963 16.9999 7.49967 16.9999C7.80312 16.9999 8.10649 16.8895 8.34293 16.6687C8.53163 16.4924 8.76847 16.2841 9.04272 16.0428C11.0163 14.3067 14.6898 11.0753 14.6898 7.1901C14.6898 5.2696 13.9419 3.46402 12.5839 2.10594ZM8.38497 15.2952C8.1047 15.5417 7.86268 15.7546 7.66313 15.941C7.57146 16.0266 7.42789 16.0266 7.33618 15.941C7.13666 15.7546 6.89461 15.5417 6.61435 15.2951C4.75896 13.663 1.30533 10.625 1.30533 7.19014C1.30533 3.7746 4.08407 0.995861 7.49964 0.995861C10.9152 0.995861 13.6939 3.7746 13.6939 7.19014C13.694 10.625 10.2404 13.663 8.38497 15.2952Z" fill="#002F56"/>
<path d="M7.49966 3.75C5.75248 3.75 4.33105 5.17139 4.33105 6.91857C4.33105 8.66576 5.75248 10.0871 7.49966 10.0871C9.24684 10.0871 10.6682 8.66576 10.6682 6.91857C10.6682 5.17139 9.24684 3.75 7.49966 3.75ZM7.49966 9.09129C6.30159 9.09129 5.32688 8.11658 5.32688 6.91854C5.32688 5.72051 6.30159 4.74579 7.49966 4.74579C8.69773 4.74579 9.67241 5.72051 9.67241 6.91854C9.67241 8.11658 8.69773 9.09129 7.49966 9.09129Z" fill="#002F56"/>
</svg>
