<svg width="18" height="18" viewBox="0 0 18 18" fill="none" xmlns="http://www.w3.org/2000/svg">
<path d="M1.80821 0.559297C1.83575 0.522578 1.85578 0.480794 1.86717 0.436332C1.87856 0.391869 1.88109 0.345598 1.8746 0.300161C1.8681 0.254723 1.85273 0.211009 1.82934 0.171515C1.80596 0.13202 1.77502 0.0975179 1.7383 0.0699787C1.70158 0.0424395 1.6598 0.0224023 1.61534 0.0110111C1.57088 -0.0003801 1.5246 -0.00290221 1.47917 0.00358885C1.43373 0.0100799 1.39002 0.025457 1.35052 0.0488421C1.31103 0.0722272 1.27652 0.103162 1.24898 0.139881L0.0699026 1.71269C0.024528 1.77319 0 1.84677 0 1.9224C0 1.99802 0.024528 2.07161 0.0699026 2.13211L1.24898 3.70491C1.3046 3.77907 1.3874 3.8281 1.47917 3.84121C1.57093 3.85432 1.66415 3.83044 1.7383 3.77482C1.81246 3.7192 1.86149 3.6364 1.8746 3.54464C1.8877 3.45287 1.86382 3.35966 1.80821 3.2855L1.04854 2.27191H11.8572L11.0563 3.27746C10.9986 3.34997 10.972 3.44246 10.9824 3.53456C10.9929 3.62667 11.0395 3.71086 11.112 3.76861C11.1845 3.82636 11.277 3.85294 11.3691 3.8425C11.4612 3.83207 11.5454 3.78547 11.6031 3.71295L12.8558 2.14014C12.9051 2.07827 12.9319 2.0015 12.9319 1.9224C12.9319 1.84329 12.9051 1.76653 12.8558 1.70465L11.6031 0.131843C11.5745 0.0959268 11.5392 0.065995 11.499 0.0437559C11.4588 0.0215169 11.4147 0.00740618 11.3691 0.00222956C11.3234 -0.00294706 11.2773 0.000911782 11.2331 0.0135857C11.189 0.0262595 11.1478 0.0475004 11.1119 0.0760953C11.076 0.10469 11.046 0.140079 11.0238 0.180242C11.0016 0.220404 10.9875 0.264554 10.9823 0.31017C10.9771 0.355786 10.981 0.401975 10.9936 0.446099C11.0063 0.490224 11.0276 0.53142 11.0561 0.567336L11.8572 1.57289H1.04854L1.80821 0.559297Z" fill="#1A959A"/>
<path fill-rule="evenodd" clip-rule="evenodd" d="M0 5.50567C0 5.32027 0.0736472 5.14247 0.20474 5.01138C0.335833 4.88029 0.513633 4.80664 0.699026 4.80664H12.3203C12.5057 4.80664 12.6835 4.88029 12.8146 5.01138C12.9457 5.14247 13.0194 5.32027 13.0194 5.50567V17.3017C13.0194 17.4871 12.9457 17.6649 12.8146 17.796C12.6835 17.9271 12.5057 18.0008 12.3203 18.0008H0.699026C0.513633 18.0008 0.335833 17.9271 0.20474 17.796C0.0736472 17.6649 0 17.4871 0 17.3017V5.50567ZM12.3203 5.50567H0.699026V17.3017H12.3203V5.50567Z" fill="#1A959A"/>
<path d="M14.2252 16.262C14.2808 16.1878 14.3636 16.1388 14.4554 16.1257C14.5471 16.1126 14.6403 16.1364 14.7145 16.1921L15.7281 16.9519V6.14321L14.7225 6.94394C14.6866 6.97254 14.6455 6.99378 14.6013 7.00646C14.5572 7.01914 14.511 7.023 14.4654 7.01784C14.4198 7.01267 14.3757 6.99857 14.3355 6.97634C14.2954 6.95411 14.26 6.92419 14.2314 6.88828C14.1736 6.81577 14.1471 6.72329 14.1575 6.63118C14.1679 6.53907 14.2145 6.45488 14.287 6.39713L15.8599 5.14448C15.9217 5.09519 15.9985 5.06836 16.0776 5.06836C16.1567 5.06836 16.2335 5.09519 16.2954 5.14448L17.8682 6.39713C17.9041 6.42573 17.934 6.46111 17.9562 6.50128C17.9785 6.54144 17.9926 6.58559 17.9978 6.63121C18.0029 6.67682 17.9991 6.72301 17.9864 6.76714C17.9737 6.81126 17.9525 6.85246 17.9239 6.88837C17.8953 6.92429 17.8599 6.95422 17.8198 6.97646C17.7796 6.9987 17.7354 7.01281 17.6898 7.01798C17.6442 7.02316 17.598 7.0193 17.5539 7.00663C17.5098 6.99395 17.4686 6.97271 17.4327 6.94412L16.4271 6.14304V16.9519L17.4407 16.1921C17.5149 16.1364 17.6081 16.1126 17.6998 16.1257C17.7916 16.1388 17.8744 16.1878 17.93 16.262C17.9856 16.3361 18.0095 16.4293 17.9964 16.5211C17.9833 16.6129 17.9343 16.6957 17.8601 16.7513L16.2873 17.9304C16.2268 17.9757 16.1532 18.0002 16.0776 18.0002C16.002 18.0002 15.9284 17.9757 15.8679 17.9304L14.2951 16.7513C14.2209 16.6957 14.1719 16.6129 14.1588 16.5211C14.1457 16.4293 14.1696 16.3361 14.2252 16.262Z" fill="#1A959A"/>
</svg>
