<svg width="32" height="32" viewBox="0 0 32 32" fill="none" xmlns="http://www.w3.org/2000/svg">
<path d="M0.5 4C0.5 2.067 2.067 0.5 4 0.5H28C29.933 0.5 31.5 2.067 31.5 4V28C31.5 29.933 29.933 31.5 28 31.5H4C2.067 31.5 0.5 29.933 0.5 28V4Z" stroke="white"/>
<path d="M8.0835 16.0026C8.0835 12.2707 8.0835 10.4047 9.24287 9.24531C10.4022 8.08594 12.2682 8.08594 16.0002 8.08594C19.7321 8.08594 21.5981 8.08594 22.7575 9.24531C23.9168 10.4047 23.9168 12.2707 23.9168 16.0026C23.9168 19.7346 23.9168 21.6005 22.7575 22.7599C21.5981 23.9193 19.7321 23.9193 16.0002 23.9193C12.2682 23.9193 10.4022 23.9193 9.24287 22.7599C8.0835 21.6005 8.0835 19.7346 8.0835 16.0026Z" stroke="white" stroke-width="1.5" stroke-linejoin="round"/>
<path d="M19.75 16C19.75 18.0711 18.0711 19.75 16 19.75C13.9289 19.75 12.25 18.0711 12.25 16C12.25 13.9289 13.9289 12.25 16 12.25C18.0711 12.25 19.75 13.9289 19.75 16Z" stroke="white" stroke-width="1.5"/>
<path d="M20.5898 11.418L20.5824 11.418" stroke="white" stroke-width="2" stroke-linecap="round" stroke-linejoin="round"/>
</svg>
