<svg width="18" height="33" viewBox="0 0 18 33" fill="none" xmlns="http://www.w3.org/2000/svg">
<path d="M14.4887 0H3.50958C1.57199 0.00217952 0.0019686 1.57228 0 3.50987V29.4877C0.00189829 31.4253 1.57206 32.9953 3.50958 32.9973H14.4887C16.4263 32.9954 17.9963 31.4253 17.9986 29.4877V3.50987C17.9964 1.57228 16.4263 0.00224982 14.4887 0ZM16.4985 29.4877C16.4974 30.5972 15.5982 31.4964 14.4887 31.4975H3.50958C2.40007 31.4964 1.50091 30.5972 1.49979 29.4877V3.50987C1.50091 2.40007 2.40007 1.50091 3.50958 1.49979H14.4887C15.5982 1.50091 16.4974 2.40007 16.4985 3.50987V29.4877Z" fill="#75CEC8"/>
<path d="M11.2492 3H6.74955C6.33544 3 5.99951 3.33558 5.99951 3.74975C5.99951 4.16393 6.33537 4.49979 6.74955 4.49979H11.2492C11.6633 4.49979 11.9989 4.16393 11.9989 3.74975C11.9989 3.33558 11.6634 3 11.2492 3ZM10.4992 28.4978C10.4992 29.3264 9.82773 29.9979 8.99937 29.9979C8.1708 29.9979 7.4993 29.3264 7.4993 28.4978C7.4993 27.6695 8.17073 26.998 8.99937 26.998C9.82766 26.998 10.4992 27.6695 10.4992 28.4978Z" fill="#75CEC8"/>
</svg>
