<svg width="32" height="32" viewBox="0 0 32 32" fill="none" xmlns="http://www.w3.org/2000/svg">
<path d="M0.5 4C0.5 2.067 2.067 0.5 4 0.5H28C29.933 0.5 31.5 2.067 31.5 4V28C31.5 29.933 29.933 31.5 28 31.5H4C2.067 31.5 0.5 29.933 0.5 28V4Z" stroke="white"/>
<path d="M11.4795 12.1844C11.4795 9.6879 13.5033 7.66406 15.9998 7.66406C18.4964 7.66406 20.5202 9.6879 20.5202 12.1844C20.5202 16.1409 20.7174 18.1187 24.3332 19.7011C22.4813 20.1641 22.0184 20.627 21.5554 22.4789C18.3147 22.4789 17.8517 24.3307 15.9998 24.3307C14.148 24.3307 13.685 22.4789 10.4443 22.4789C9.98132 20.627 9.51836 20.1641 7.6665 19.7011C11.2822 18.1187 11.4795 16.1409 11.4795 12.1844Z" stroke="white" stroke-width="1.5" stroke-linecap="round" stroke-linejoin="round"/>
<path d="M7.6665 19.3333C10.8528 17.5976 10.8528 15.9586 8.46308 13.5" stroke="white" stroke-width="1.5" stroke-linecap="round"/>
<path d="M24.333 19.3333C21.1467 17.5976 21.1467 15.9586 23.5364 13.5" stroke="white" stroke-width="1.5" stroke-linecap="round"/>
</svg>
