<svg width="32" height="32" viewBox="0 0 32 32" fill="none" xmlns="http://www.w3.org/2000/svg">
<path d="M0.5 4C0.5 2.067 2.067 0.5 4 0.5H28C29.933 0.5 31.5 2.067 31.5 4V28C31.5 29.933 29.933 31.5 28 31.5H4C2.067 31.5 0.5 29.933 0.5 28V4Z" stroke="white"/>
<path d="M8.0835 15.9987C8.0835 12.2667 8.0835 10.4008 9.24286 9.2414C10.4022 8.08203 12.2682 8.08203 16.0002 8.08203C19.7321 8.08203 21.5981 8.08203 22.7575 9.2414C23.9168 10.4008 23.9168 12.2667 23.9168 15.9987C23.9168 19.7307 23.9168 21.5966 22.7575 22.756C21.5981 23.9154 19.7321 23.9154 16.0002 23.9154C12.2682 23.9154 10.4022 23.9154 9.24286 22.756C8.0835 21.5966 8.0835 19.7307 8.0835 15.9987Z" stroke="white" stroke-width="1.5" stroke-linecap="round" stroke-linejoin="round"/>
<path d="M11.8335 20.1654L15.3281 16.6707M20.1668 11.832L16.6722 15.3267M16.6722 15.3267L14.1483 11.832H11.8335L15.3281 16.6707M16.6722 15.3267L20.1668 20.1654H17.852L15.3281 16.6707" stroke="white" stroke-width="1.5" stroke-linecap="round" stroke-linejoin="round"/>
</svg>
