<svg width="32" height="32" viewBox="0 0 32 32" fill="none" xmlns="http://www.w3.org/2000/svg">
<path d="M0.5 4C0.5 2.067 2.067 0.5 4 0.5H28C29.933 0.5 31.5 2.067 31.5 4V28C31.5 29.933 29.933 31.5 28 31.5H4C2.067 31.5 0.5 29.933 0.5 28V4Z" stroke="white"/>
<path d="M15.9998 23.0807C17.5079 23.0807 18.9541 22.9318 20.2944 22.6585C21.9685 22.3173 22.8055 22.1467 23.5693 21.1646C24.3332 20.1825 24.3332 19.0551 24.3332 16.8004L24.3332 15.1944C24.3332 12.9397 24.3332 11.8123 23.5693 10.8302C22.8055 9.84813 21.9685 9.6775 20.2944 9.33625C18.9541 9.06304 17.5079 8.91406 15.9998 8.91406C14.4918 8.91406 13.0456 9.06304 11.7053 9.33625C10.0312 9.6775 9.19418 9.84813 8.43034 10.8302C7.6665 11.8123 7.6665 12.9397 7.6665 15.1944V16.8004C7.6665 19.0551 7.6665 20.1825 8.43034 21.1646C9.19418 22.1467 10.0312 22.3173 11.7053 22.6585C13.0456 22.9318 14.4918 23.0807 15.9998 23.0807Z" stroke="white" stroke-width="1.5"/>
<path d="M19.3018 16.2594C19.1781 16.7643 18.5201 17.1269 17.204 17.8521C15.7727 18.6408 15.057 19.0352 14.4773 18.8833C14.281 18.8318 14.1002 18.7413 13.9483 18.6186C13.5 18.2561 13.5 17.5036 13.5 15.9987C13.5 14.4938 13.5 13.7413 13.9483 13.3788C14.1002 13.2561 14.281 13.1656 14.4773 13.1141C15.057 12.9622 15.7727 13.3566 17.204 14.1453C18.5201 14.8705 19.1781 15.2331 19.3018 15.738C19.3439 15.9097 19.3439 16.0876 19.3018 16.2594Z" stroke="white" stroke-width="1.5" stroke-linejoin="round"/>
</svg>
